<?xml version="1.0" encoding="UTF-8"?>
<!DOCTYPE svg PUBLIC "-//W3C//DTD SVG 1.1//EN" "http://www.w3.org/Graphics/SVG/1.1/DTD/svg11.dtd">
<svg xmlns="http://www.w3.org/2000/svg" version="1.1" width="347px" height="395px" style="shape-rendering:geometricPrecision; text-rendering:geometricPrecision; image-rendering:optimizeQuality; fill-rule:evenodd; clip-rule:evenodd" xmlns:xlink="http://www.w3.org/1999/xlink">
<g><path style="opacity:0.02" fill="#f8db87" d="M 229.5,23.5 C 232.152,23.4095 234.485,24.0762 236.5,25.5C 233.848,25.5905 231.515,24.9238 229.5,23.5 Z"/></g>
<g><path style="opacity:0.998" fill="#e49544" d="M 229.5,23.5 C 231.515,24.9238 233.848,25.5905 236.5,25.5C 237.429,26.3149 238.429,27.1482 239.5,28C 238.906,28.4643 238.239,28.631 237.5,28.5C 233.956,26.8261 230.123,25.8261 226,25.5C 219.189,26.4558 212.355,27.1224 205.5,27.5C 191.677,26.5042 177.677,26.1709 163.5,26.5C 163.5,26.1667 163.5,25.8333 163.5,25.5C 184.131,24.9437 204.798,23.9437 225.5,22.5C 227.045,22.5108 228.378,22.8442 229.5,23.5 Z"/></g>
<g><path style="opacity:0.286" fill="#d89650" d="M 163.5,25.5 C 163.5,25.8333 163.5,26.1667 163.5,26.5C 147.813,29.0035 132.147,31.5035 116.5,34C 115.449,35.3848 114.116,36.3848 112.5,37C 106.639,37.0393 101.639,39.0393 97.5,43C 96.552,43.4828 95.552,43.6495 94.5,43.5C 94.8333,42.8333 95.1667,42.1667 95.5,41.5C 96.7489,39.8639 98.4156,38.6972 100.5,38C 105.44,36.1809 110.44,34.5143 115.5,33C 131.412,29.8543 147.412,27.3543 163.5,25.5 Z"/></g>
<g><path style="opacity:0.451" fill="#d39756" d="M 236.5,25.5 C 237.959,25.4326 239.292,25.7659 240.5,26.5C 241.429,27.3149 242.429,28.1482 243.5,29C 247.134,29.1556 250.467,30.1556 253.5,32C 252.263,32.2321 251.263,32.7321 250.5,33.5C 246.596,32.0226 242.596,31.1892 238.5,31C 239.787,35.9074 242.12,40.2407 245.5,44C 248.555,44.6342 251.555,44.4675 254.5,43.5C 254.586,44.4959 254.252,45.3292 253.5,46C 250.167,46.6667 246.833,46.6667 243.5,46C 239.735,40.7483 237.735,34.915 237.5,28.5C 238.239,28.631 238.906,28.4643 239.5,28C 238.429,27.1482 237.429,26.3149 236.5,25.5 Z"/></g>
<g><path style="opacity:1" fill="#fb6d0a" d="M 163.5,26.5 C 177.677,26.1709 191.677,26.5042 205.5,27.5C 210.346,28.366 215.346,28.5327 220.5,28C 221.337,29.0113 221.67,30.1779 221.5,31.5C 223.527,31.3379 225.527,31.5045 227.5,32C 230.438,35.6539 233.105,39.4872 235.5,43.5C 236.937,40.9557 238.437,40.9557 240,43.5C 240.58,46.5475 240.247,46.8808 239,44.5C 237.991,46.0249 237.491,47.6916 237.5,49.5C 236.153,48.8288 234.986,48.8288 234,49.5C 230.463,47.5299 227.296,45.0299 224.5,42C 223.552,41.5172 222.552,41.3505 221.5,41.5C 221.5,42.8333 221.5,44.1667 221.5,45.5C 210.742,46.1284 200.242,45.4618 190,43.5C 189.667,45.1667 189.333,46.8333 189,48.5C 188.503,46.1902 188.337,43.8568 188.5,41.5C 183.5,41.5 178.5,41.5 173.5,41.5C 173.5,42.8333 173.5,44.1667 173.5,45.5C 166.733,45.8207 160.066,45.1541 153.5,43.5C 149.593,44.8112 145.593,45.4778 141.5,45.5C 141.67,46.8221 141.337,47.9887 140.5,49C 138.19,49.4966 135.857,49.6633 133.5,49.5C 132.85,53.6072 133.85,57.1072 136.5,60C 138.859,60.2078 141.026,60.3744 143,60.5C 144.897,58.9837 147.064,58.317 149.5,58.5C 149.5,59.5 149.5,60.5 149.5,61.5C 151.919,65.2287 154.252,65.2287 156.5,61.5C 157.244,62.9905 157.91,64.4905 158.5,66C 158.167,66.3333 157.833,66.6667 157.5,67C 154.3,67.1015 151.3,67.7681 148.5,69C 149.047,69.9246 149.713,70.7579 150.5,71.5C 153.975,72.0953 156.975,73.4287 159.5,75.5C 159.5,75.8333 159.5,76.1667 159.5,76.5C 159.5,77.1667 159.167,77.5 158.5,77.5C 156.697,78.0464 155.03,78.8797 153.5,80C 151.5,80.1667 149.5,80.3333 147.5,80.5C 139.5,80.3475 131.666,79.3475 124,77.5C 122.831,78.0085 121.998,78.8419 121.5,80C 117.108,81.3029 112.775,82.4696 108.5,83.5C 106.566,87.4346 103.566,90.4346 99.5,92.5C 99.5,91.5 99.5,90.5 99.5,89.5C 102.624,89.0571 104.957,87.3905 106.5,84.5C 106.291,83.914 105.957,83.414 105.5,83C 106.685,81.647 108.019,80.4803 109.5,79.5C 108.623,75.4611 108.623,71.6277 109.5,68C 110.308,67.6924 110.975,67.1924 111.5,66.5C 110.753,66.2635 109.92,65.9302 109,65.5C 108.667,63.5 108.333,61.5 108,59.5C 106.333,61.5 104.667,63.5 103,65.5C 100.861,65.7797 98.5277,65.7797 96,65.5C 94.2942,66.3079 93.4609,67.6412 93.5,69.5C 85.8333,69.8333 81.8333,73.8333 81.5,81.5C 78.9512,81.3874 76.6179,82.0541 74.5,83.5C 73.3691,81.9255 73.2025,80.2588 74,78.5C 78.7212,77.3439 79.7212,74.6773 77,70.5C 76.2496,71.1258 75.4162,71.6258 74.5,72C 71.8333,75 69.1667,78 66.5,81C 67.4162,81.3742 68.2496,81.8742 69,82.5C 69.4966,84.8098 69.6633,87.1432 69.5,89.5C 67.0706,89.8844 64.7373,90.551 62.5,91.5C 62.5,93.5 62.5,95.5 62.5,97.5C 60.8333,97.5 59.1667,97.5 57.5,97.5C 57.5,96.1667 57.5,94.8333 57.5,93.5C 55.2532,93.9153 53.0865,94.5819 51,95.5C 49.9302,95.472 49.0968,95.1386 48.5,94.5C 52.5025,94.0287 55.6692,92.0287 58,88.5C 59.1675,85.1074 58.3342,82.4408 55.5,80.5C 56.7337,78.4476 58.4004,76.781 60.5,75.5C 62.9148,79.2678 65.5815,79.4345 68.5,76C 66.5273,75.5045 64.5273,75.3379 62.5,75.5C 62.3433,74.1266 62.51,72.7932 63,71.5C 66.2735,67.551 70.1069,64.3843 74.5,62C 76.2785,62.9791 77.9452,62.6458 79.5,61C 83.6856,54.9899 88.3523,49.4899 93.5,44.5C 93.5,43.8333 93.8333,43.5 94.5,43.5C 95.552,43.6495 96.552,43.4828 97.5,43C 101.639,39.0393 106.639,37.0393 112.5,37C 114.116,36.3848 115.449,35.3848 116.5,34C 132.147,31.5035 147.813,29.0035 163.5,26.5 Z"/></g>
<g><path style="opacity:0.643" fill="#d9b06d" d="M 240.5,26.5 C 249.511,27.6798 257.511,31.0132 264.5,36.5C 262.901,36.2322 261.568,36.5655 260.5,37.5C 259.811,40.1894 258.144,41.8561 255.5,42.5C 256.685,41.1434 257.685,39.6434 258.5,38C 256.209,35.6914 253.543,34.1914 250.5,33.5C 251.263,32.7321 252.263,32.2321 253.5,32C 250.467,30.1556 247.134,29.1556 243.5,29C 242.429,28.1482 241.429,27.3149 240.5,26.5 Z"/></g>
<g><path style="opacity:1" fill="#f47814" d="M 237.5,28.5 C 237.735,34.915 239.735,40.7483 243.5,46C 246.833,46.6667 250.167,46.6667 253.5,46C 254.252,45.3292 254.586,44.4959 254.5,43.5C 254.5,42.8333 254.833,42.5 255.5,42.5C 258.144,41.8561 259.811,40.1894 260.5,37.5C 261.873,37.3433 263.207,37.51 264.5,38C 269.117,42.2797 273.784,46.613 278.5,51C 279.448,51.4828 280.448,51.6495 281.5,51.5C 281.5,52.8333 281.5,54.1667 281.5,55.5C 276.167,55.5 270.833,55.5 265.5,55.5C 265.5,56.8333 265.5,58.1667 265.5,59.5C 262.514,56.938 262.847,54.7713 266.5,53C 261.206,52.1822 261.206,51.6822 266.5,51.5C 266.714,49.8561 266.38,48.3561 265.5,47C 262.888,46.3605 260.554,45.1938 258.5,43.5C 255.815,43.7083 255.149,44.875 256.5,47C 257.793,47.49 259.127,47.6567 260.5,47.5C 260.5,48.8333 260.5,50.1667 260.5,51.5C 257.619,50.7263 254.952,49.3929 252.5,47.5C 249.465,48.0608 246.465,48.7275 243.5,49.5C 243.511,48.5585 243.011,47.8919 242,47.5C 240.7,48.7073 239.2,49.3739 237.5,49.5C 237.491,47.6916 237.991,46.0249 239,44.5C 240.247,46.8808 240.58,46.5475 240,43.5C 238.437,40.9557 236.937,40.9557 235.5,43.5C 233.105,39.4872 230.438,35.6539 227.5,32C 225.527,31.5045 223.527,31.3379 221.5,31.5C 221.67,30.1779 221.337,29.0113 220.5,28C 215.346,28.5327 210.346,28.366 205.5,27.5C 212.355,27.1224 219.189,26.4558 226,25.5C 230.123,25.8261 233.956,26.8261 237.5,28.5 Z"/></g>
<g><path style="opacity:1" fill="#fc6a09" d="M 237.5,49.5 C 239.2,49.3739 240.7,48.7073 242,47.5C 243.011,47.8919 243.511,48.5585 243.5,49.5C 246.465,48.7275 249.465,48.0608 252.5,47.5C 254.952,49.3929 257.619,50.7263 260.5,51.5C 260.5,50.1667 260.5,48.8333 260.5,47.5C 259.127,47.6567 257.793,47.49 256.5,47C 255.149,44.875 255.815,43.7083 258.5,43.5C 260.554,45.1938 262.888,46.3605 265.5,47C 266.38,48.3561 266.714,49.8561 266.5,51.5C 261.206,51.6822 261.206,52.1822 266.5,53C 262.847,54.7713 262.514,56.938 265.5,59.5C 265.833,59.5 266.167,59.5 266.5,59.5C 266.586,60.4959 266.252,61.3292 265.5,62C 261.179,62.499 256.846,62.6657 252.5,62.5C 252.5,63.5 252.5,64.5 252.5,65.5C 249.753,65.1866 247.086,65.52 244.5,66.5C 247.428,67.4841 250.428,67.8174 253.5,67.5C 253.5,68.8333 253.5,70.1667 253.5,71.5C 251.5,71.5 249.5,71.5 247.5,71.5C 242.195,70.2088 236.862,69.2088 231.5,68.5C 226.228,66.4635 220.561,64.9635 214.5,64C 213.624,62.4152 212.291,61.4152 210.5,61C 206.094,60.558 201.761,59.7247 197.5,58.5C 193.306,58.8517 189.306,59.5184 185.5,60.5C 181.775,62.3473 177.775,63.6806 173.5,64.5C 166.388,65.1268 161.721,68.7934 159.5,75.5C 156.975,73.4287 153.975,72.0953 150.5,71.5C 149.713,70.7579 149.047,69.9246 148.5,69C 151.3,67.7681 154.3,67.1015 157.5,67C 157.833,66.6667 158.167,66.3333 158.5,66C 157.91,64.4905 157.244,62.9905 156.5,61.5C 154.252,65.2287 151.919,65.2287 149.5,61.5C 149.5,60.5 149.5,59.5 149.5,58.5C 147.064,58.317 144.897,58.9837 143,60.5C 141.026,60.3744 138.859,60.2078 136.5,60C 133.85,57.1072 132.85,53.6072 133.5,49.5C 135.857,49.6633 138.19,49.4966 140.5,49C 141.337,47.9887 141.67,46.8221 141.5,45.5C 145.593,45.4778 149.593,44.8112 153.5,43.5C 160.066,45.1541 166.733,45.8207 173.5,45.5C 173.5,44.1667 173.5,42.8333 173.5,41.5C 178.5,41.5 183.5,41.5 188.5,41.5C 188.337,43.8568 188.503,46.1902 189,48.5C 189.333,46.8333 189.667,45.1667 190,43.5C 200.242,45.4618 210.742,46.1284 221.5,45.5C 221.5,44.1667 221.5,42.8333 221.5,41.5C 222.552,41.3505 223.552,41.5172 224.5,42C 227.296,45.0299 230.463,47.5299 234,49.5C 234.986,48.8288 236.153,48.8288 237.5,49.5 Z"/></g>
<g><path style="opacity:0.176" fill="#f2c883" d="M 95.5,41.5 C 95.1667,42.1667 94.8333,42.8333 94.5,43.5C 93.8333,43.5 93.5,43.8333 93.5,44.5C 90.3388,45.9131 87.3388,47.5797 84.5,49.5C 87.6012,46.0669 91.2679,43.4002 95.5,41.5 Z"/></g>
<g><path style="opacity:0.255" fill="#ecc282" d="M 84.5,49.5 C 83.4154,51.5869 81.7488,52.9202 79.5,53.5C 80.5846,51.4131 82.2512,50.0798 84.5,49.5 Z"/></g>
<g><path style="opacity:1" fill="#ed7713" d="M 93.5,44.5 C 88.3523,49.4899 83.6856,54.9899 79.5,61C 77.9452,62.6458 76.2785,62.9791 74.5,62C 70.1069,64.3843 66.2735,67.551 63,71.5C 62.51,72.7932 62.3433,74.1266 62.5,75.5C 64.5273,75.3379 66.5273,75.5045 68.5,76C 65.5815,79.4345 62.9148,79.2678 60.5,75.5C 58.4004,76.781 56.7337,78.4476 55.5,80.5C 58.3342,82.4408 59.1675,85.1074 58,88.5C 55.6692,92.0287 52.5025,94.0287 48.5,94.5C 47.5,94.5 46.5,94.5 45.5,94.5C 44.5722,97.1296 43.5722,99.7963 42.5,102.5C 41.8506,100.376 41.0173,98.3759 40,96.5C 39.3742,102.195 39.5409,107.862 40.5,113.5C 39.5,113.5 38.5,113.5 37.5,113.5C 37.762,112.022 37.4287,110.689 36.5,109.5C 35.3023,113.512 35.3023,117.512 36.5,121.5C 34.5613,120.986 33.5613,119.653 33.5,117.5C 34.327,114.217 34.6604,110.884 34.5,107.5C 37.1144,104.032 38.1144,100.032 37.5,95.5C 37.5,95.1667 37.5,94.8333 37.5,94.5C 44.9499,88.0549 51.6166,81.0549 57.5,73.5C 57.5,72.8333 57.8333,72.5 58.5,72.5C 62.5698,69.9396 66.2365,66.7729 69.5,63C 73.257,60.4131 76.5903,57.2464 79.5,53.5C 81.7488,52.9202 83.4154,51.5869 84.5,49.5C 87.3388,47.5797 90.3388,45.9131 93.5,44.5 Z"/></g>
<g><path style="opacity:0.946" fill="#de6b1f" d="M 231.5,68.5 C 230.5,68.5 229.5,68.5 228.5,68.5C 217.336,66.7927 206.336,64.2927 195.5,61C 192.183,60.5017 188.85,60.335 185.5,60.5C 189.306,59.5184 193.306,58.8517 197.5,58.5C 201.761,59.7247 206.094,60.558 210.5,61C 212.291,61.4152 213.624,62.4152 214.5,64C 220.561,64.9635 226.228,66.4635 231.5,68.5 Z"/></g>
<g><path style="opacity:0.537" fill="#dccd8c" d="M 282.5,51.5 C 286.085,53.9426 289.251,56.9426 292,60.5C 293.401,62.1459 293.568,63.8125 292.5,65.5C 289.683,63.1833 287.016,60.6833 284.5,58C 279.649,57.8255 274.982,57.3255 270.5,56.5C 275.167,56.5 279.833,56.5 284.5,56.5C 284.169,54.6776 283.502,53.0109 282.5,51.5 Z"/></g>
<g><path style="opacity:0.965" fill="#de9a50" d="M 260.5,37.5 C 261.568,36.5655 262.901,36.2322 264.5,36.5C 270.909,41.0339 276.909,46.0339 282.5,51.5C 283.502,53.0109 284.169,54.6776 284.5,56.5C 279.833,56.5 275.167,56.5 270.5,56.5C 269.448,56.3505 268.448,56.5172 267.5,57C 269.863,59.5056 271.53,62.3389 272.5,65.5C 268.036,65.2738 263.703,65.2738 259.5,65.5C 262.771,67.6911 266.104,69.6911 269.5,71.5C 265.613,71.0901 261.947,70.0901 258.5,68.5C 258.5,67.5 258.5,66.5 258.5,65.5C 256.571,65.7692 254.905,65.2692 253.5,64C 258.489,63.5007 263.489,63.3341 268.5,63.5C 268.771,61.6203 268.104,60.287 266.5,59.5C 266.167,59.5 265.833,59.5 265.5,59.5C 265.5,58.1667 265.5,56.8333 265.5,55.5C 270.833,55.5 276.167,55.5 281.5,55.5C 281.5,54.1667 281.5,52.8333 281.5,51.5C 280.448,51.6495 279.448,51.4828 278.5,51C 273.784,46.613 269.117,42.2797 264.5,38C 263.207,37.51 261.873,37.3433 260.5,37.5 Z"/></g>
<g><path style="opacity:0.298" fill="#dba65e" d="M 79.5,53.5 C 76.5903,57.2464 73.257,60.4131 69.5,63C 66.2365,66.7729 62.5698,69.9396 58.5,72.5C 64.598,65.0637 71.598,58.7303 79.5,53.5 Z"/></g>
<g><path style="opacity:1" fill="#e7a74d" d="M 149.5,61.5 C 149.759,64.4797 148.426,66.313 145.5,67C 142.833,67.6667 140.167,67.6667 137.5,67C 141.834,65.8174 145.834,63.9841 149.5,61.5 Z"/></g>
<g><path style="opacity:1" fill="#ea6e12" d="M 266.5,59.5 C 268.104,60.287 268.771,61.6203 268.5,63.5C 263.489,63.3341 258.489,63.5007 253.5,64C 254.905,65.2692 256.571,65.7692 258.5,65.5C 258.5,66.5 258.5,67.5 258.5,68.5C 261.947,70.0901 265.613,71.0901 269.5,71.5C 270.684,72.6879 270.684,73.8545 269.5,75C 264.522,74.949 259.522,74.7823 254.5,74.5C 254.167,74.5 253.833,74.5 253.5,74.5C 251.844,72.9397 249.844,71.9397 247.5,71.5C 249.5,71.5 251.5,71.5 253.5,71.5C 253.5,70.1667 253.5,68.8333 253.5,67.5C 250.428,67.8174 247.428,67.4841 244.5,66.5C 247.086,65.52 249.753,65.1866 252.5,65.5C 252.5,64.5 252.5,63.5 252.5,62.5C 256.846,62.6657 261.179,62.499 265.5,62C 266.252,61.3292 266.586,60.4959 266.5,59.5 Z"/></g>
<g><path style="opacity:0.769" fill="#d06d22" d="M 173.5,64.5 C 167.948,67.379 163.282,71.379 159.5,76.5C 159.5,76.1667 159.5,75.8333 159.5,75.5C 161.721,68.7934 166.388,65.1268 173.5,64.5 Z"/></g>
<g><path style="opacity:0.863" fill="#dc8d3f" d="M 228.5,68.5 C 229.5,68.5 230.5,68.5 231.5,68.5C 236.862,69.2088 242.195,70.2088 247.5,71.5C 249.844,71.9397 251.844,72.9397 253.5,74.5C 244.77,73.6642 236.437,71.6642 228.5,68.5 Z"/></g>
<g><path style="opacity:0.988" fill="#e49237" d="M 269.5,71.5 C 273.313,72.9076 276.98,74.5742 280.5,76.5C 280.5,77.5 280.5,78.5 280.5,79.5C 278.833,79.5 277.167,79.5 275.5,79.5C 268.448,77.5836 261.448,75.9169 254.5,74.5C 259.522,74.7823 264.522,74.949 269.5,75C 270.684,73.8545 270.684,72.6879 269.5,71.5 Z"/></g>
<g><path style="opacity:0.4" fill="#d6ad63" d="M 280.5,76.5 C 282.394,77.0476 284.06,78.0476 285.5,79.5C 285.291,80.086 284.957,80.586 284.5,81C 281.28,81.3202 278.28,80.8202 275.5,79.5C 277.167,79.5 278.833,79.5 280.5,79.5C 280.5,78.5 280.5,77.5 280.5,76.5 Z"/></g>
<g><path style="opacity:1" fill="#fc6b0a" d="M 99.5,92.5 C 97.0156,94.5452 96.0156,97.2118 96.5,100.5C 95.8897,102.434 94.8897,104.101 93.5,105.5C 92.2058,106.29 91.0391,107.29 90,108.5C 87.303,115.089 85.1364,121.755 83.5,128.5C 83.5,129.167 83.1667,129.5 82.5,129.5C 80.3862,130.36 79.2195,132.027 79,134.5C 78.2375,138.587 78.4042,142.587 79.5,146.5C 78.4991,149.884 78.8325,153.218 80.5,156.5C 79.6798,158.111 78.3464,158.778 76.5,158.5C 76.6495,159.552 76.4828,160.552 76,161.5C 72,161.5 68,161.5 64,161.5C 62.6667,158.833 61.3333,156.167 60,153.5C 59.5172,154.448 59.3505,155.448 59.5,156.5C 56.8858,156.723 55.2191,155.556 54.5,153C 56.5,151 58.5,149 60.5,147C 59.3588,144.217 57.5255,142.05 55,140.5C 54.3333,138.5 54.3333,136.5 55,134.5C 56.0113,133.663 57.1779,133.33 58.5,133.5C 58.8333,130.5 57.5,129.167 54.5,129.5C 54.5,130.833 54.5,132.167 54.5,133.5C 51.7615,134.035 49.9282,133.035 49,130.5C 48.6667,131.167 48.3333,131.833 48,132.5C 45.771,126.106 43.9377,126.106 42.5,132.5C 41.209,132.263 40.209,132.596 39.5,133.5C 39.1307,129.232 38.1307,125.232 36.5,121.5C 35.3023,117.512 35.3023,113.512 36.5,109.5C 37.4287,110.689 37.762,112.022 37.5,113.5C 38.5,113.5 39.5,113.5 40.5,113.5C 39.5409,107.862 39.3742,102.195 40,96.5C 41.0173,98.3759 41.8506,100.376 42.5,102.5C 43.5722,99.7963 44.5722,97.1296 45.5,94.5C 46.5,94.5 47.5,94.5 48.5,94.5C 49.0968,95.1386 49.9302,95.472 51,95.5C 53.0865,94.5819 55.2532,93.9153 57.5,93.5C 57.5,94.8333 57.5,96.1667 57.5,97.5C 59.1667,97.5 60.8333,97.5 62.5,97.5C 62.5,95.5 62.5,93.5 62.5,91.5C 64.7373,90.551 67.0706,89.8844 69.5,89.5C 69.6633,87.1432 69.4966,84.8098 69,82.5C 68.2496,81.8742 67.4162,81.3742 66.5,81C 69.1667,78 71.8333,75 74.5,72C 75.4162,71.6258 76.2496,71.1258 77,70.5C 79.7212,74.6773 78.7212,77.3439 74,78.5C 73.2025,80.2588 73.3691,81.9255 74.5,83.5C 76.6179,82.0541 78.9512,81.3874 81.5,81.5C 81.8333,73.8333 85.8333,69.8333 93.5,69.5C 93.4609,67.6412 94.2942,66.3079 96,65.5C 98.5277,65.7797 100.861,65.7797 103,65.5C 104.667,63.5 106.333,61.5 108,59.5C 108.333,61.5 108.667,63.5 109,65.5C 109.92,65.9302 110.753,66.2635 111.5,66.5C 110.975,67.1924 110.308,67.6924 109.5,68C 108.623,71.6277 108.623,75.4611 109.5,79.5C 108.019,80.4803 106.685,81.647 105.5,83C 105.957,83.414 106.291,83.914 106.5,84.5C 104.957,87.3905 102.624,89.0571 99.5,89.5C 99.5,90.5 99.5,91.5 99.5,92.5 Z"/></g>
<g><path style="opacity:0.961" fill="#d57e2f" d="M 158.5,77.5 C 158.426,79.4109 157.426,80.5776 155.5,81C 148.158,81.522 140.825,81.3553 133.5,80.5C 117.35,80.3581 105.017,87.0248 96.5,100.5C 96.0156,97.2118 97.0156,94.5452 99.5,92.5C 103.566,90.4346 106.566,87.4346 108.5,83.5C 112.775,82.4696 117.108,81.3029 121.5,80C 121.998,78.8419 122.831,78.0085 124,77.5C 131.666,79.3475 139.5,80.3475 147.5,80.5C 149.5,80.3333 151.5,80.1667 153.5,80C 155.03,78.8797 156.697,78.0464 158.5,77.5 Z"/></g>
<g><path style="opacity:1" fill="#040a22" d="M 57.5,322.5 C 58.6266,321.878 59.6266,321.045 60.5,320C 56.2099,316.013 55.5432,311.513 58.5,306.5C 56.4638,303.541 56.6305,300.541 59,297.5C 59.4974,294.854 59.6641,292.187 59.5,289.5C 57.8333,289.5 56.1667,289.5 54.5,289.5C 56.2995,282.244 57.9662,274.911 59.5,267.5C 60.8448,266.653 61.8448,265.487 62.5,264C 66.276,262.725 68.9427,260.225 70.5,256.5C 71.7362,255.754 73.0695,255.421 74.5,255.5C 74.2549,260.257 72.0882,263.924 68,266.5C 67.0691,268.459 66.2357,270.459 65.5,272.5C 67.396,273.466 69.396,273.799 71.5,273.5C 71.3512,270.035 73.0179,268.035 76.5,267.5C 78.1307,269.059 78.964,271.059 79,273.5C 83.4226,272.968 87.9226,272.635 92.5,272.5C 93.8333,266.167 93.8333,259.833 92.5,253.5C 90.259,252.36 88.0923,252.36 86,253.5C 85.7073,251.075 84.5407,249.242 82.5,248C 83.549,247.508 84.549,247.674 85.5,248.5C 87.0658,245.776 89.3991,243.942 92.5,243C 90.2464,241.946 89.913,240.446 91.5,238.5C 92.9522,235.878 95.1188,234.212 98,233.5C 99.9701,229.963 102.47,226.796 105.5,224C 104.109,222.98 102.609,222.147 101,221.5C 100.517,220.552 100.351,219.552 100.5,218.5C 105.487,202.856 112.821,188.523 122.5,175.5C 123.5,175.5 124.5,175.5 125.5,175.5C 125.567,173.599 125.233,171.766 124.5,170C 125.137,168.287 126.137,168.121 127.5,169.5C 128.742,165.331 128.742,161.164 127.5,157C 129.067,153.702 129.9,150.202 130,146.5C 131.699,145.594 133.533,145.261 135.5,145.5C 134.704,150.816 134.037,156.149 133.5,161.5C 134.833,161.5 136.167,161.5 137.5,161.5C 139.337,153.702 138.67,146.202 135.5,139C 136.705,136.793 136.705,134.626 135.5,132.5C 143.95,117.918 153.617,104.251 164.5,91.5C 165.117,91.6107 165.617,91.944 166,92.5C 168.262,89.5694 171.095,87.4027 174.5,86C 181.162,84.9886 187.662,85.4886 194,87.5C 197.005,86.1229 199.838,86.4562 202.5,88.5C 207.095,88.3848 211.095,90.2182 214.5,94C 219.946,94.1011 225.279,94.7677 230.5,96C 227.956,97.092 225.289,97.7586 222.5,98C 221.167,99.6667 221.167,101.333 222.5,103C 227.155,103.499 231.821,103.666 236.5,103.5C 236.062,99.0917 238.062,97.4251 242.5,98.5C 242.963,101.482 243.296,104.482 243.5,107.5C 246.359,107.592 248.859,107.925 251,108.5C 252.706,107.692 253.539,106.359 253.5,104.5C 259.047,104.422 264.38,104.755 269.5,105.5C 269.663,107.857 269.497,110.19 269,112.5C 268.333,113.833 267.667,113.833 267,112.5C 266.833,113.167 266.667,113.833 266.5,114.5C 268.502,117.174 269.502,120.174 269.5,123.5C 266.626,123.623 264.126,124.623 262,126.5C 256.673,134.909 252.173,143.909 248.5,153.5C 245.921,153.083 243.754,153.75 242,155.5C 239.215,150.109 237.715,150.609 237.5,157C 237.354,159.034 238.02,160.701 239.5,162C 238.663,163.011 238.33,164.178 238.5,165.5C 236.8,165.626 235.3,166.293 234,167.5C 233.055,167.095 232.388,166.428 232,165.5C 230.26,168.889 228.427,172.222 226.5,175.5C 225.158,177.005 223.492,177.672 221.5,177.5C 221.38,180.205 222.38,180.872 224.5,179.5C 227.873,181.041 228.373,183.374 226,186.5C 224.89,188.037 223.39,188.703 221.5,188.5C 221.613,192.327 220.613,195.827 218.5,199C 219.127,202.372 217.793,205.039 214.5,207C 214.833,207.333 215.167,207.667 215.5,208C 212.832,213.032 209.665,217.866 206,222.5C 205.577,225.133 204.41,227.299 202.5,229C 202.833,229.333 203.167,229.667 203.5,230C 202.256,230.456 201.423,229.956 201,228.5C 194.447,235.928 190.447,244.261 189,253.5C 188.085,254.328 187.419,255.328 187,256.5C 186.275,254.842 185.108,254.342 183.5,255C 183.294,257.865 181.794,260.365 179,262.5C 178.505,264.473 178.338,266.473 178.5,268.5C 177.127,268.343 175.793,268.51 174.5,269C 175.022,269.561 175.355,270.228 175.5,271C 174.164,273.678 173.33,276.511 173,279.5C 171.167,281.333 169.333,283.167 167.5,285C 168.119,287.544 167.619,290.044 166,292.5C 160.827,296.136 157.827,301.136 157,307.5C 152.698,314.021 147.865,320.188 142.5,326C 140.754,326.471 139.087,327.138 137.5,328C 136.378,330.124 134.878,331.957 133,333.5C 132.586,333.043 132.086,332.709 131.5,332.5C 130.376,333.914 129.376,335.414 128.5,337C 123.43,337.594 118.43,338.427 113.5,339.5C 108.929,338.708 104.929,336.875 101.5,334C 93.6351,333.267 86.1351,331.433 79,328.5C 78.3333,329.167 77.6667,329.833 77,330.5C 74.4739,328.245 71.8072,326.245 69,324.5C 66.0292,324.85 63.0292,325.184 60,325.5C 58.2509,325.252 57.4176,324.252 57.5,322.5 Z"/></g>
<g><path style="opacity:0.247" fill="#f5c887" d="M 57.5,73.5 C 51.6166,81.0549 44.9499,88.0549 37.5,94.5C 42.7682,88.0582 48.2682,81.7248 54,75.5C 54.8159,74.1772 55.9826,73.5106 57.5,73.5 Z"/></g>
<g><path style="opacity:1" fill="#0c101f" d="M 127.5,85.5 C 126.737,86.2679 125.737,86.7679 124.5,87C 131.864,88.0053 139.197,89.3386 146.5,91C 148.116,91.6152 149.449,92.6152 150.5,94C 149.289,95.1131 149.289,96.2798 150.5,97.5C 149.167,98.1667 147.833,98.8333 146.5,99.5C 147.629,101.529 147.129,101.863 145,100.5C 144.302,101.691 143.469,102.691 142.5,103.5C 142.167,103.5 141.833,103.5 141.5,103.5C 140.047,102.175 140.381,101.342 142.5,101C 140.512,100.82 138.512,100.986 136.5,101.5C 126.795,103.541 121.129,109.541 119.5,119.5C 119.167,119.5 118.833,119.5 118.5,119.5C 117.218,120.708 117.218,122.042 118.5,123.5C 120.58,122.669 122.58,121.669 124.5,120.5C 125.442,120.608 126.275,120.941 127,121.5C 129.06,120.239 130.56,118.572 131.5,116.5C 133.294,118.428 134.294,120.762 134.5,123.5C 130.432,131.302 126.098,138.968 121.5,146.5C 119.058,144.861 118.891,142.861 121,140.5C 122.676,139.939 124.009,138.939 125,137.5C 125.499,133.179 125.666,128.846 125.5,124.5C 122.644,124.072 119.644,123.905 116.5,124C 113.973,119.781 113.973,115.447 116.5,111C 114.265,109.355 113.265,110.188 113.5,113.5C 111.052,113.915 109.719,112.915 109.5,110.5C 110.499,107.667 111.499,104.834 112.5,102C 112.167,100.833 111.833,99.6667 111.5,98.5C 110.672,103.343 108.005,104.676 103.5,102.5C 102.5,103.5 101.5,104.5 100.5,105.5C 101.397,105.669 102.397,106.002 103.5,106.5C 103,107.5 102.5,108.5 102,109.5C 100.774,107.452 99.2741,107.119 97.5,108.5C 103.451,95.5491 113.451,87.8824 127.5,85.5 Z"/></g>
<g><path style="opacity:0.455" fill="#ebc487" d="M 37.5,95.5 C 38.1144,100.032 37.1144,104.032 34.5,107.5C 35.1316,103.298 36.1316,99.2976 37.5,95.5 Z"/></g>
<g><path style="opacity:0.404" fill="#cf7a31" d="M 93.5,105.5 C 90.4264,113.311 87.093,120.977 83.5,128.5C 85.1364,121.755 87.303,115.089 90,108.5C 91.0391,107.29 92.2058,106.29 93.5,105.5 Z"/></g>
<g><path style="opacity:0.808" fill="#eab475" d="M 319.5,136.5 C 316.788,134.724 313.955,133.057 311,131.5C 309.251,131.748 308.418,132.748 308.5,134.5C 307.313,136.072 306.313,137.739 305.5,139.5C 305.678,136.784 306.178,134.117 307,131.5C 308.418,129.637 310.251,129.137 312.5,130C 315.288,131.719 317.621,133.885 319.5,136.5 Z"/></g>
<g><path style="opacity:1" fill="#091026" d="M 121.5,146.5 C 120.554,148.89 119.221,151.056 117.5,153C 106.361,154.62 96.8607,151.454 89,143.5C 87.0691,140.386 86.4024,137.053 87,133.5C 89.2547,124.548 92.7547,116.215 97.5,108.5C 99.2741,107.119 100.774,107.452 102,109.5C 102.5,108.5 103,107.5 103.5,106.5C 102.397,106.002 101.397,105.669 100.5,105.5C 101.5,104.5 102.5,103.5 103.5,102.5C 108.005,104.676 110.672,103.343 111.5,98.5C 111.833,99.6667 112.167,100.833 112.5,102C 111.499,104.834 110.499,107.667 109.5,110.5C 109.719,112.915 111.052,113.915 113.5,113.5C 113.265,110.188 114.265,109.355 116.5,111C 113.973,115.447 113.973,119.781 116.5,124C 119.644,123.905 122.644,124.072 125.5,124.5C 125.666,128.846 125.499,133.179 125,137.5C 124.009,138.939 122.676,139.939 121,140.5C 118.891,142.861 119.058,144.861 121.5,146.5 Z"/></g>
<g><path style="opacity:1" fill="#eb7617" d="M 36.5,121.5 C 38.1307,125.232 39.1307,129.232 39.5,133.5C 34.8479,134.115 33.3479,136.781 35,141.5C 37.039,143.874 39.3723,145.874 42,147.5C 42.7589,145.937 43.9256,144.937 45.5,144.5C 44.1667,147.167 42.8333,149.833 41.5,152.5C 36.9508,158.481 37.4508,159.814 43,156.5C 43.3333,154.5 43.6667,152.5 44,150.5C 46.3716,147.09 48.2049,143.423 49.5,139.5C 49.9834,133.433 51.3167,133.099 53.5,138.5C 52.723,140.447 51.723,142.28 50.5,144C 52.0765,148.675 50.4098,151.509 45.5,152.5C 43.8744,155.931 44.5411,158.765 47.5,161C 45.4806,162.688 43.814,164.688 42.5,167C 40.3496,168.411 38.0163,169.245 35.5,169.5C 35.5,168.5 35.5,167.5 35.5,166.5C 34.5,166.5 33.5,166.5 32.5,166.5C 32.3651,163.493 33.3651,160.993 35.5,159C 34.1401,156.73 33.4734,154.23 33.5,151.5C 34.5,151.5 35.5,151.5 36.5,151.5C 36.8991,154.988 37.5658,155.154 38.5,152C 37.9233,149.863 37.59,147.696 37.5,145.5C 35.8333,145.5 34.1667,145.5 32.5,145.5C 31.3294,150.818 31.3294,156.151 32.5,161.5C 30.7376,161.357 29.0709,161.691 27.5,162.5C 26.8658,164.772 25.5324,166.439 23.5,167.5C 27.2727,153.349 31.9394,139.515 37.5,126C 37.3948,124.408 37.0614,122.908 36.5,121.5 Z"/></g>
<g><path style="opacity:1" fill="#fa6d0a" d="M 79.5,146.5 C 80.404,147.209 80.7373,148.209 80.5,149.5C 84.8191,151.474 89.1524,153.474 93.5,155.5C 95.55,159.059 98.55,161.226 102.5,162C 103.357,162.689 104.023,163.522 104.5,164.5C 108.783,165.492 113.116,165.826 117.5,165.5C 115.547,169.177 114.547,173.177 114.5,177.5C 112.938,177.733 111.605,178.4 110.5,179.5C 110.5,178.5 110.5,177.5 110.5,176.5C 111.5,176.5 112.5,176.5 113.5,176.5C 113.683,170.684 112.35,170.184 109.5,175C 106.167,175.667 102.833,175.667 99.5,175C 98.8633,172.694 97.3633,171.527 95,171.5C 91.993,172.979 88.8263,173.646 85.5,173.5C 85.5,174.833 85.5,176.167 85.5,177.5C 83.8333,177.5 82.1667,177.5 80.5,177.5C 80.5,180.167 80.5,182.833 80.5,185.5C 79.5,185.5 78.5,185.5 77.5,185.5C 76.736,191.492 75.9027,197.492 75,203.5C 72.9835,205.684 70.8169,207.684 68.5,209.5C 67.671,214.467 67.171,219.467 67,224.5C 65.4905,225.09 63.9905,225.756 62.5,226.5C 68.3586,226.188 70.8586,228.855 70,234.5C 69.4387,235.022 68.772,235.355 68,235.5C 66.1208,233.987 63.9541,233.321 61.5,233.5C 61.2267,235.451 61.8934,236.951 63.5,238C 63.1667,238.333 62.8333,238.667 62.5,239C 64.9063,239.306 67.073,240.139 69,241.5C 70.1385,241.011 71.3052,240.678 72.5,240.5C 71.0664,243.047 69.3998,245.381 67.5,247.5C 65.549,247.773 64.049,247.107 63,245.5C 62.5065,247.134 62.3398,248.801 62.5,250.5C 59.507,251.486 56.507,252.486 53.5,253.5C 53.3285,255.492 53.9951,257.158 55.5,258.5C 54.3112,259.429 52.9778,259.762 51.5,259.5C 51.5,258.833 51.5,258.167 51.5,257.5C 52.4055,250.973 52.4055,244.473 51.5,238C 50.4188,236.629 49.5855,235.129 49,233.5C 48.2588,234.641 47.4255,234.641 46.5,233.5C 45.6667,234.5 44.8333,235.5 44,236.5C 43.1873,231.293 43.6873,226.293 45.5,221.5C 45.1237,218.99 44.2904,216.657 43,214.5C 42.1534,202.168 41.32,189.834 40.5,177.5C 39.6747,181.122 39.1747,184.789 39,188.5C 38.7216,187.584 38.2216,186.918 37.5,186.5C 37.5,186.167 37.5,185.833 37.5,185.5C 37.719,184.325 37.3857,183.325 36.5,182.5C 35.6667,183.5 34.8333,184.5 34,185.5C 33,182.167 32,178.833 31,175.5C 29.0217,178.595 27.5217,181.928 26.5,185.5C 25.1972,182.03 25.5306,178.697 27.5,175.5C 27.2811,173.085 25.9477,172.085 23.5,172.5C 23.5,171.5 23.5,170.5 23.5,169.5C 23.5,168.833 23.5,168.167 23.5,167.5C 25.5324,166.439 26.8658,164.772 27.5,162.5C 29.0709,161.691 30.7376,161.357 32.5,161.5C 31.3294,156.151 31.3294,150.818 32.5,145.5C 34.1667,145.5 35.8333,145.5 37.5,145.5C 37.59,147.696 37.9233,149.863 38.5,152C 37.5658,155.154 36.8991,154.988 36.5,151.5C 35.5,151.5 34.5,151.5 33.5,151.5C 33.4734,154.23 34.1401,156.73 35.5,159C 33.3651,160.993 32.3651,163.493 32.5,166.5C 33.5,166.5 34.5,166.5 35.5,166.5C 35.5,167.5 35.5,168.5 35.5,169.5C 38.0163,169.245 40.3496,168.411 42.5,167C 43.814,164.688 45.4806,162.688 47.5,161C 44.5411,158.765 43.8744,155.931 45.5,152.5C 50.4098,151.509 52.0765,148.675 50.5,144C 51.723,142.28 52.723,140.447 53.5,138.5C 51.3167,133.099 49.9834,133.433 49.5,139.5C 47.9263,140.984 46.593,142.651 45.5,144.5C 43.9256,144.937 42.7589,145.937 42,147.5C 39.3723,145.874 37.039,143.874 35,141.5C 33.3479,136.781 34.8479,134.115 39.5,133.5C 40.209,132.596 41.209,132.263 42.5,132.5C 43.9377,126.106 45.771,126.106 48,132.5C 48.3333,131.833 48.6667,131.167 49,130.5C 49.9282,133.035 51.7615,134.035 54.5,133.5C 54.5,132.167 54.5,130.833 54.5,129.5C 57.5,129.167 58.8333,130.5 58.5,133.5C 57.1779,133.33 56.0113,133.663 55,134.5C 54.3333,136.5 54.3333,138.5 55,140.5C 57.5255,142.05 59.3588,144.217 60.5,147C 58.5,149 56.5,151 54.5,153C 55.2191,155.556 56.8858,156.723 59.5,156.5C 59.3505,155.448 59.5172,154.448 60,153.5C 61.3333,156.167 62.6667,158.833 64,161.5C 68,161.5 72,161.5 76,161.5C 76.4828,160.552 76.6495,159.552 76.5,158.5C 78.3464,158.778 79.6798,158.111 80.5,156.5C 78.8325,153.218 78.4991,149.884 79.5,146.5 Z"/></g>
<g><path style="opacity:0.961" fill="#d89044" d="M 308.5,134.5 C 307.705,139.182 306.539,143.849 305,148.5C 302.162,152.172 299.829,156.172 298,160.5C 297.329,161.252 296.496,161.586 295.5,161.5C 299.408,154.356 302.741,147.023 305.5,139.5C 306.313,137.739 307.313,136.072 308.5,134.5 Z"/></g>
<g><path style="opacity:0.525" fill="#cd7637" d="M 82.5,129.5 C 79.179,136.76 80.179,143.26 85.5,149C 91.8441,152.504 97.8441,156.504 103.5,161C 108.736,162.339 114.07,162.839 119.5,162.5C 120.351,168.439 118.684,173.439 114.5,177.5C 114.547,173.177 115.547,169.177 117.5,165.5C 113.116,165.826 108.783,165.492 104.5,164.5C 104.023,163.522 103.357,162.689 102.5,162C 98.55,161.226 95.55,159.059 93.5,155.5C 89.1524,153.474 84.8191,151.474 80.5,149.5C 80.7373,148.209 80.404,147.209 79.5,146.5C 78.4042,142.587 78.2375,138.587 79,134.5C 79.2195,132.027 80.3862,130.36 82.5,129.5 Z"/></g>
<g><path style="opacity:0.693" fill="#df954b" d="M 319.5,136.5 C 321.892,139.598 324.058,142.931 326,146.5C 326.333,153.167 326.667,159.833 327,166.5C 327.862,168.087 328.529,169.754 329,171.5C 329.667,178.5 329.667,185.5 329,192.5C 328.877,198.414 328.044,204.081 326.5,209.5C 326.5,200.5 326.5,191.5 326.5,182.5C 328.101,177.051 327.601,171.717 325,166.5C 324.667,160.167 324.333,153.833 324,147.5C 321.648,143.99 319.148,140.49 316.5,137C 314.656,135.818 312.823,134.651 311,133.5C 310.098,133.743 309.265,134.077 308.5,134.5C 308.418,132.748 309.251,131.748 311,131.5C 313.955,133.057 316.788,134.724 319.5,136.5 Z"/></g>
<g><path style="opacity:1" fill="#0c121f" d="M 135.5,132.5 C 136.705,134.626 136.705,136.793 135.5,139C 138.67,146.202 139.337,153.702 137.5,161.5C 136.167,161.5 134.833,161.5 133.5,161.5C 134.037,156.149 134.704,150.816 135.5,145.5C 133.533,145.261 131.699,145.594 130,146.5C 129.9,150.202 129.067,153.702 127.5,157C 128.742,161.164 128.742,165.331 127.5,169.5C 126.137,168.121 125.137,168.287 124.5,170C 125.233,171.766 125.567,173.599 125.5,175.5C 124.5,175.5 123.5,175.5 122.5,175.5C 123.033,159.91 127.366,145.577 135.5,132.5 Z"/></g>
<g><path style="opacity:1" fill="#f97711" d="M 326.5,182.5 C 326.665,179.482 326.498,176.482 326,173.5C 325.751,174.624 325.251,175.624 324.5,176.5C 323.833,172.833 323.167,169.167 322.5,165.5C 321.667,166.5 320.833,167.5 320,168.5C 318.176,164.543 315.676,161.209 312.5,158.5C 309.971,160.063 308.971,162.396 309.5,165.5C 306.833,165.5 304.167,165.5 301.5,165.5C 301.79,161.446 301.123,160.946 299.5,164C 300.24,165.785 300.907,167.618 301.5,169.5C 301.167,169.833 300.833,170.167 300.5,170.5C 299.316,168.954 298.316,167.287 297.5,165.5C 296.051,167.611 295.051,169.944 294.5,172.5C 296.171,174.51 296.838,176.843 296.5,179.5C 294.396,179.201 292.396,179.534 290.5,180.5C 291.612,181.265 292.279,182.265 292.5,183.5C 289.757,183.923 288.424,182.756 288.5,180C 289.752,175.923 291.585,172.09 294,168.5C 294.977,166.26 295.477,163.927 295.5,161.5C 296.496,161.586 297.329,161.252 298,160.5C 299.829,156.172 302.162,152.172 305,148.5C 306.539,143.849 307.705,139.182 308.5,134.5C 309.265,134.077 310.098,133.743 311,133.5C 312.823,134.651 314.656,135.818 316.5,137C 319.148,140.49 321.648,143.99 324,147.5C 324.333,153.833 324.667,160.167 325,166.5C 327.601,171.717 328.101,177.051 326.5,182.5 Z"/></g>
<g><path style="opacity:0.812" fill="#eab361" d="M 49.5,139.5 C 48.2049,143.423 46.3716,147.09 44,150.5C 43.6667,152.5 43.3333,154.5 43,156.5C 37.4508,159.814 36.9508,158.481 41.5,152.5C 42.8333,149.833 44.1667,147.167 45.5,144.5C 46.593,142.651 47.9263,140.984 49.5,139.5 Z"/></g>
<g><path style="opacity:0.998" fill="#0f1520" d="M 281.5,174.5 C 280.03,176.151 278.697,177.985 277.5,180C 276.207,180.49 274.873,180.657 273.5,180.5C 272.833,180.5 272.167,180.5 271.5,180.5C 268.833,179.833 266.167,179.167 263.5,178.5C 265.589,178.143 267.589,177.477 269.5,176.5C 275.02,159.439 282.187,143.106 291,127.5C 294.578,114.968 292.744,103.301 285.5,92.5C 285.833,92.1667 286.167,91.8333 286.5,91.5C 294.531,96.3655 301.031,102.699 306,110.5C 308.123,117.607 307.79,124.607 305,131.5C 297.303,145.999 289.469,160.332 281.5,174.5 Z"/></g>
<g><path style="opacity:0.702" fill="#dd9f5a" d="M 34.5,107.5 C 34.6604,110.884 34.327,114.217 33.5,117.5C 33.5613,119.653 34.5613,120.986 36.5,121.5C 37.0614,122.908 37.3948,124.408 37.5,126C 31.9394,139.515 27.2727,153.349 23.5,167.5C 23.5,168.167 23.5,168.833 23.5,169.5C 22.0001,170.625 20.6668,171.959 19.5,173.5C 24.2269,157.319 29.5603,141.319 35.5,125.5C 33.5754,123.384 32.2421,120.884 31.5,118C 32.1361,114.272 33.1361,110.772 34.5,107.5 Z"/></g>
<g><path style="opacity:1" fill="#fa690a" d="M 110.5,179.5 C 107.304,187.59 103.804,195.59 100,203.5C 99.5065,205.134 99.3398,206.801 99.5,208.5C 99.5,208.833 99.5,209.167 99.5,209.5C 98.5041,209.414 97.6708,209.748 97,210.5C 94.6635,215.869 92.3302,221.203 90,226.5C 87.9358,229.531 85.2691,231.864 82,233.5C 81.5357,234.094 81.369,234.761 81.5,235.5C 81.0269,236.906 80.0269,237.573 78.5,237.5C 76.0122,237.683 74.0122,238.683 72.5,240.5C 71.3052,240.678 70.1385,241.011 69,241.5C 67.073,240.139 64.9063,239.306 62.5,239C 62.8333,238.667 63.1667,238.333 63.5,238C 61.8934,236.951 61.2267,235.451 61.5,233.5C 63.9541,233.321 66.1208,233.987 68,235.5C 68.772,235.355 69.4387,235.022 70,234.5C 70.8586,228.855 68.3586,226.188 62.5,226.5C 63.9905,225.756 65.4905,225.09 67,224.5C 67.171,219.467 67.671,214.467 68.5,209.5C 70.8169,207.684 72.9835,205.684 75,203.5C 75.9027,197.492 76.736,191.492 77.5,185.5C 78.5,185.5 79.5,185.5 80.5,185.5C 80.5,182.833 80.5,180.167 80.5,177.5C 82.1667,177.5 83.8333,177.5 85.5,177.5C 85.5,176.167 85.5,174.833 85.5,173.5C 88.8263,173.646 91.993,172.979 95,171.5C 97.3633,171.527 98.8633,172.694 99.5,175C 102.833,175.667 106.167,175.667 109.5,175C 112.35,170.184 113.683,170.684 113.5,176.5C 112.5,176.5 111.5,176.5 110.5,176.5C 110.5,177.5 110.5,178.5 110.5,179.5 Z"/></g>
<g><path style="opacity:0.714" fill="#e2a865" d="M 19.5,173.5 C 18.9492,176.807 18.6159,180.14 18.5,183.5C 17.2223,183.782 16.2223,184.449 15.5,185.5C 16.235,181.195 17.5683,177.195 19.5,173.5 Z"/></g>
<g><path style="opacity:0.145" fill="#697c89" d="M 281.5,174.5 C 280.908,177.127 280.575,179.794 280.5,182.5C 278.54,181.862 276.707,181.862 275,182.5C 274.283,181.956 273.783,181.289 273.5,180.5C 274.873,180.657 276.207,180.49 277.5,180C 278.697,177.985 280.03,176.151 281.5,174.5 Z"/></g>
<g><path style="opacity:0.008" fill="#e9f0f6" d="M 277.5,184.5 C 278.833,185.167 278.833,185.167 277.5,184.5 Z"/></g>
<g><path style="opacity:0.009" fill="#f9fafa" d="M 275.5,184.5 C 276.749,185.778 278.249,186.778 280,187.5C 280.483,188.448 280.649,189.448 280.5,190.5C 275.379,190.445 273.713,188.445 275.5,184.5 Z"/></g>
<g><path style="opacity:0.824" fill="#d57b32" d="M 114.5,177.5 C 109.755,187.99 104.755,198.323 99.5,208.5C 99.3398,206.801 99.5065,205.134 100,203.5C 103.804,195.59 107.304,187.59 110.5,179.5C 111.605,178.4 112.938,177.733 114.5,177.5 Z"/></g>
<g><path style="opacity:1" fill="#fb6d0d" d="M 17.5,187.5 C 19.3079,188.918 19.9746,190.918 19.5,193.5C 20.675,193.719 21.675,193.386 22.5,192.5C 23.0521,190.667 23.8855,189 25,187.5C 26.1343,191.153 26.6343,194.986 26.5,199C 24.9994,210.334 24.3327,221.834 24.5,233.5C 24.618,242.56 25.2846,251.56 26.5,260.5C 24.7024,265.968 23.0357,271.301 21.5,276.5C 19.9891,274.524 19.1558,272.191 19,269.5C 16.8832,266.909 15.0499,264.242 13.5,261.5C 14.5893,249.339 14.5893,237.339 13.5,225.5C 13.1923,212.478 14.5256,199.812 17.5,187.5 Z"/></g>
<g><path style="opacity:0.024" fill="#f0ece8" d="M 283.5,192.5 C 285.857,192.337 288.19,192.503 290.5,193C 291.784,194.297 291.617,195.464 290,196.5C 289.431,192.639 288.598,192.639 287.5,196.5C 285.192,196.035 283.858,194.701 283.5,192.5 Z"/></g>
<g><path style="opacity:0.267" fill="#f9d396" d="M 15.5,185.5 C 15.7011,191.18 14.7011,196.514 12.5,201.5C 12.899,195.933 13.899,190.599 15.5,185.5 Z"/></g>
<g><path style="opacity:0.833" fill="#db7434" d="M 18.5,183.5 C 18.1667,184.833 17.8333,186.167 17.5,187.5C 14.5256,199.812 13.1923,212.478 13.5,225.5C 12.8333,224.833 12.1667,224.167 11.5,223.5C 11.2363,216.11 11.5696,208.777 12.5,201.5C 14.7011,196.514 15.7011,191.18 15.5,185.5C 16.2223,184.449 17.2223,183.782 18.5,183.5 Z"/></g>
<g><path style="opacity:0.306" fill="#e49c5d" d="M 295.5,161.5 C 295.477,163.927 294.977,166.26 294,168.5C 291.585,172.09 289.752,175.923 288.5,180C 288.424,182.756 289.757,183.923 292.5,183.5C 294.259,184.871 296.259,185.871 298.5,186.5C 299.575,188.902 300.742,191.236 302,193.5C 302.667,196.167 302.667,198.833 302,201.5C 301.777,203.881 300.61,205.547 298.5,206.5C 303.4,195.127 299.733,187.627 287.5,184C 286.665,180.437 287.165,176.937 289,173.5C 290.941,169.278 293.108,165.278 295.5,161.5 Z"/></g>
<g><path style="opacity:1" fill="#aeb1c1" d="M 137.5,190.5 C 139.744,199.513 141.744,208.847 143.5,218.5C 148.849,218.145 154.182,217.978 159.5,218C 155.097,219.195 150.597,220.028 146,220.5C 144.893,220.415 143.893,220.081 143,219.5C 140.367,209.97 138.533,200.304 137.5,190.5 Z"/></g>
<g><path style="opacity:1" fill="#0a101f" d="M 276.5,234.5 C 277.21,231.14 275.876,229.307 272.5,229C 275.029,227.938 277.696,227.105 280.5,226.5C 280.023,225.522 279.357,224.689 278.5,224C 279.42,221.165 280.42,218.332 281.5,215.5C 277.801,213.324 273.801,211.657 269.5,210.5C 269.326,212.861 268.993,215.194 268.5,217.5C 263.833,217.5 259.167,217.5 254.5,217.5C 254.839,212.759 252.839,211.426 248.5,213.5C 247.71,216.352 246.044,218.519 243.5,220C 244.711,221.113 244.711,222.28 243.5,223.5C 239.458,226.046 237.291,229.712 237,234.5C 234.093,235.431 231.26,236.431 228.5,237.5C 238.114,223.38 247.947,209.38 258,195.5C 260.371,192.794 263.037,190.461 266,188.5C 269.518,190.336 273.018,192.17 276.5,194C 281.735,199.071 287.401,203.571 293.5,207.5C 288.168,216.807 282.501,225.807 276.5,234.5 Z"/></g>
<g><path style="opacity:0.565" fill="#282a2f" d="M 263.5,178.5 C 266.167,179.167 268.833,179.833 271.5,180.5C 264.901,180.215 259.401,182.549 255,187.5C 246.584,199.997 238.417,212.663 230.5,225.5C 229.417,224.635 229.251,223.635 230,222.5C 236.503,212.831 242.503,202.831 248,192.5C 251.167,188.667 254.333,184.833 257.5,181C 259.407,179.878 261.407,179.045 263.5,178.5 Z"/></g>
<g><path style="opacity:1" fill="#050c22" d="M 276.5,234.5 C 276.573,236.027 275.906,237.027 274.5,237.5C 272.856,237.286 271.356,237.62 270,238.5C 269.667,240.5 269.333,242.5 269,244.5C 267.602,243.949 266.268,243.616 265,243.5C 262.847,245.444 260.347,245.944 257.5,245C 256.663,243.989 256.33,242.822 256.5,241.5C 255.167,241.5 253.833,241.5 252.5,241.5C 252.421,242.93 252.754,244.264 253.5,245.5C 255.507,247.008 257.174,248.842 258.5,251C 256.968,251.7 255.968,252.866 255.5,254.5C 253.974,256.387 251.974,257.387 249.5,257.5C 245.156,258.829 240.823,258.829 236.5,257.5C 231.345,255.842 227.178,252.842 224,248.5C 223.333,246.5 223.333,244.5 224,242.5C 225.736,240.937 227.236,239.27 228.5,237.5C 231.26,236.431 234.093,235.431 237,234.5C 237.291,229.712 239.458,226.046 243.5,223.5C 244.711,222.28 244.711,221.113 243.5,220C 246.044,218.519 247.71,216.352 248.5,213.5C 252.839,211.426 254.839,212.759 254.5,217.5C 259.167,217.5 263.833,217.5 268.5,217.5C 268.993,215.194 269.326,212.861 269.5,210.5C 273.801,211.657 277.801,213.324 281.5,215.5C 280.42,218.332 279.42,221.165 278.5,224C 279.357,224.689 280.023,225.522 280.5,226.5C 277.696,227.105 275.029,227.938 272.5,229C 275.876,229.307 277.21,231.14 276.5,234.5 Z"/></g>
<g><path style="opacity:0.918" fill="#cd7327" d="M 326.5,209.5 C 326.453,212.969 325.787,216.302 324.5,219.5C 323.833,222.167 323.167,224.833 322.5,227.5C 322.335,223.818 322.501,220.152 323,216.5C 323.615,213.697 324.782,211.364 326.5,209.5 Z"/></g>
<g><path style="opacity:0.729" fill="#d0762b" d="M 99.5,209.5 C 96.9098,215.43 94.4098,221.43 92,227.5C 89.0989,231.025 85.5989,233.692 81.5,235.5C 81.369,234.761 81.5357,234.094 82,233.5C 85.2691,231.864 87.9358,229.531 90,226.5C 92.3302,221.203 94.6635,215.869 97,210.5C 97.6708,209.748 98.5041,209.414 99.5,209.5 Z"/></g>
<g><path style="opacity:1" fill="#e28a35" d="M 298.5,206.5 C 297.576,210.627 295.743,214.293 293,217.5C 291.953,220.881 290.453,224.047 288.5,227C 288.833,227.333 289.167,227.667 289.5,228C 288.552,228.483 287.552,228.649 286.5,228.5C 286.5,229.5 286.5,230.5 286.5,231.5C 285.5,231.5 284.5,231.5 283.5,231.5C 283.417,236.559 281.083,239.893 276.5,241.5C 282.473,230.226 288.973,219.226 296,208.5C 296.708,207.619 297.542,206.953 298.5,206.5 Z"/></g>
<g><path style="opacity:1" fill="#f66c0d" d="M 326.5,182.5 C 326.5,191.5 326.5,200.5 326.5,209.5C 324.782,211.364 323.615,213.697 323,216.5C 322.501,220.152 322.335,223.818 322.5,227.5C 322.5,231.167 322.5,234.833 322.5,238.5C 322.5,239.833 322.5,241.167 322.5,242.5C 321.833,244.833 321.167,247.167 320.5,249.5C 319.755,252.541 318.422,255.207 316.5,257.5C 315.93,247.016 315.264,236.683 314.5,226.5C 314.5,226.167 314.5,225.833 314.5,225.5C 315.477,222.713 315.81,219.713 315.5,216.5C 315.5,212.167 315.5,207.833 315.5,203.5C 317.626,200.473 317.959,197.14 316.5,193.5C 315.438,195.022 314.771,196.688 314.5,198.5C 313.883,198.389 313.383,198.056 313,197.5C 312.5,206.827 312.334,216.161 312.5,225.5C 311.127,232.189 309.793,239.022 308.5,246C 308.667,247.5 308.833,249 309,250.5C 309.057,247.149 309.891,244.149 311.5,241.5C 311.665,245.182 311.499,248.848 311,252.5C 310.121,254.979 308.621,256.979 306.5,258.5C 305.205,257.902 303.872,257.402 302.5,257C 303.059,256.275 303.392,255.442 303.5,254.5C 302.188,250.888 301.188,247.221 300.5,243.5C 298.167,243.5 295.833,243.5 293.5,243.5C 293.649,242.448 293.483,241.448 293,240.5C 292.333,239.167 291.667,239.167 291,240.5C 290.405,236.918 289.071,236.584 287,239.5C 284.689,247.045 281.855,254.378 278.5,261.5C 276.489,263.678 274.322,265.678 272,267.5C 269.67,265.96 267.17,264.793 264.5,264C 265.888,263.111 265.722,262.611 264,262.5C 261.106,264.326 260.94,266.326 263.5,268.5C 263,268.833 262.5,269.167 262,269.5C 259.405,267.854 256.572,267.187 253.5,267.5C 253.5,266.833 253.5,266.167 253.5,265.5C 256.226,265.736 258.559,264.903 260.5,263C 265.16,259.187 268.827,254.687 271.5,249.5C 275.158,248.203 276.824,245.537 276.5,241.5C 281.083,239.893 283.417,236.559 283.5,231.5C 284.5,231.5 285.5,231.5 286.5,231.5C 286.5,230.5 286.5,229.5 286.5,228.5C 287.552,228.649 288.552,228.483 289.5,228C 289.167,227.667 288.833,227.333 288.5,227C 290.453,224.047 291.953,220.881 293,217.5C 295.743,214.293 297.576,210.627 298.5,206.5C 300.61,205.547 301.777,203.881 302,201.5C 302.667,198.833 302.667,196.167 302,193.5C 300.742,191.236 299.575,188.902 298.5,186.5C 296.259,185.871 294.259,184.871 292.5,183.5C 292.279,182.265 291.612,181.265 290.5,180.5C 292.396,179.534 294.396,179.201 296.5,179.5C 296.838,176.843 296.171,174.51 294.5,172.5C 295.051,169.944 296.051,167.611 297.5,165.5C 298.316,167.287 299.316,168.954 300.5,170.5C 300.833,170.167 301.167,169.833 301.5,169.5C 300.907,167.618 300.24,165.785 299.5,164C 301.123,160.946 301.79,161.446 301.5,165.5C 304.167,165.5 306.833,165.5 309.5,165.5C 308.971,162.396 309.971,160.063 312.5,158.5C 315.676,161.209 318.176,164.543 320,168.5C 320.833,167.5 321.667,166.5 322.5,165.5C 323.167,169.167 323.833,172.833 324.5,176.5C 325.251,175.624 325.751,174.624 326,173.5C 326.498,176.482 326.665,179.482 326.5,182.5 Z M 313.5,219.5 C 314.461,221.265 314.795,223.265 314.5,225.5C 314.5,225.833 314.5,226.167 314.5,226.5C 313.596,227.209 313.263,228.209 313.5,229.5C 312.566,228.432 312.232,227.099 312.5,225.5C 313.461,223.735 313.795,221.735 313.5,219.5 Z"/></g>
<g><path style="opacity:0.506" fill="#d17131" d="M 314.5,198.5 C 313.659,205.465 313.326,212.465 313.5,219.5C 313.795,221.735 313.461,223.735 312.5,225.5C 312.334,216.161 312.5,206.827 313,197.5C 313.383,198.056 313.883,198.389 314.5,198.5 Z"/></g>
<g><path style="opacity:0.035" fill="#dda56e" d="M 315.5,203.5 C 314.167,207.833 314.167,212.167 315.5,216.5C 315.81,219.713 315.477,222.713 314.5,225.5C 314.795,223.265 314.461,221.265 313.5,219.5C 313.326,212.465 313.659,205.465 314.5,198.5C 314.771,196.688 315.438,195.022 316.5,193.5C 317.959,197.14 317.626,200.473 315.5,203.5 Z"/></g>
<g><path style="opacity:0.055" fill="#f4d37f" d="M 312.5,225.5 C 312.232,227.099 312.566,228.432 313.5,229.5C 312.196,233.36 311.529,237.36 311.5,241.5C 309.891,244.149 309.057,247.149 309,250.5C 308.833,249 308.667,247.5 308.5,246C 309.793,239.022 311.127,232.189 312.5,225.5 Z"/></g>
<g><path style="opacity:0.235" fill="#e7ba8e" d="M 11.5,223.5 C 12.1667,224.167 12.8333,224.833 13.5,225.5C 13.8221,233.729 13.1554,241.729 11.5,249.5C 12.1879,240.876 12.1879,232.209 11.5,223.5 Z"/></g>
<g><path style="opacity:0.02" fill="#ffde99" d="M 324.5,219.5 C 324.5,223.167 324.5,226.833 324.5,230.5C 323.833,233.167 323.167,235.833 322.5,238.5C 322.5,234.833 322.5,231.167 322.5,227.5C 323.167,224.833 323.833,222.167 324.5,219.5 Z"/></g>
<g><path style="opacity:0.129" fill="#fee9b3" d="M 326.5,231.5 C 328.033,233.634 328.7,236.134 328.5,239C 328.494,241.033 328.161,242.866 327.5,244.5C 327.533,240.131 327.2,235.798 326.5,231.5 Z"/></g>
<g><path style="opacity:1" fill="#10131d" d="M 282.5,96.5 C 282.318,98.5914 282.652,100.591 283.5,102.5C 281.93,102.694 280.43,102.694 279,102.5C 278.683,104.301 278.016,104.634 277,103.5C 276.805,105.207 276.805,106.874 277,108.5C 275.956,107.377 275.29,106.044 275,104.5C 274.617,105.056 274.117,105.389 273.5,105.5C 270.996,101.252 267.329,99.085 262.5,99C 273.165,103.163 276.665,110.663 273,121.5C 259.728,143.102 246.061,164.435 232,185.5C 228.902,190.697 226.068,196.03 223.5,201.5C 222.094,201.973 221.427,202.973 221.5,204.5C 205.176,229.132 189.843,254.466 175.5,280.5C 174.662,280.842 174.328,281.508 174.5,282.5C 173.833,282.5 173.5,282.833 173.5,283.5C 167.749,291.328 162.749,299.661 158.5,308.5C 157.833,308.5 157.5,308.833 157.5,309.5C 156.11,310.899 155.11,312.566 154.5,314.5C 153.833,314.5 153.5,314.833 153.5,315.5C 152.599,316.29 151.932,317.29 151.5,318.5C 150.833,318.5 150.5,318.833 150.5,319.5C 148.529,321.808 146.529,324.142 144.5,326.5C 143.833,326.5 143.5,326.833 143.5,327.5C 142.5,327.833 141.833,328.5 141.5,329.5C 140.833,329.5 140.5,329.833 140.5,330.5C 134.792,335.867 128.125,339.533 120.5,341.5C 119.167,341.5 117.833,341.5 116.5,341.5C 115.833,341.5 115.167,341.5 114.5,341.5C 104.084,339.084 93.7504,336.418 83.5,333.5C 82.8333,333.5 82.1667,333.5 81.5,333.5C 74.3708,331.046 67.0374,328.879 59.5,327C 56.3793,325.694 53.7126,323.86 51.5,321.5C 53.4513,320.718 54.9513,319.384 56,317.5C 57.2692,318.905 57.7692,320.571 57.5,322.5C 57.4176,324.252 58.2509,325.252 60,325.5C 63.0292,325.184 66.0292,324.85 69,324.5C 71.8072,326.245 74.4739,328.245 77,330.5C 77.6667,329.833 78.3333,329.167 79,328.5C 86.1351,331.433 93.6351,333.267 101.5,334C 104.929,336.875 108.929,338.708 113.5,339.5C 118.43,338.427 123.43,337.594 128.5,337C 129.376,335.414 130.376,333.914 131.5,332.5C 132.086,332.709 132.586,333.043 133,333.5C 134.878,331.957 136.378,330.124 137.5,328C 139.087,327.138 140.754,326.471 142.5,326C 147.865,320.188 152.698,314.021 157,307.5C 157.827,301.136 160.827,296.136 166,292.5C 167.619,290.044 168.119,287.544 167.5,285C 169.333,283.167 171.167,281.333 173,279.5C 173.33,276.511 174.164,273.678 175.5,271C 175.355,270.228 175.022,269.561 174.5,269C 175.793,268.51 177.127,268.343 178.5,268.5C 178.338,266.473 178.505,264.473 179,262.5C 181.794,260.365 183.294,257.865 183.5,255C 185.108,254.342 186.275,254.842 187,256.5C 187.419,255.328 188.085,254.328 189,253.5C 190.447,244.261 194.447,235.928 201,228.5C 201.423,229.956 202.256,230.456 203.5,230C 203.167,229.667 202.833,229.333 202.5,229C 204.41,227.299 205.577,225.133 206,222.5C 209.665,217.866 212.832,213.032 215.5,208C 215.167,207.667 214.833,207.333 214.5,207C 217.793,205.039 219.127,202.372 218.5,199C 220.613,195.827 221.613,192.327 221.5,188.5C 223.39,188.703 224.89,188.037 226,186.5C 228.373,183.374 227.873,181.041 224.5,179.5C 222.38,180.872 221.38,180.205 221.5,177.5C 223.492,177.672 225.158,177.005 226.5,175.5C 228.427,172.222 230.26,168.889 232,165.5C 232.388,166.428 233.055,167.095 234,167.5C 235.3,166.293 236.8,165.626 238.5,165.5C 238.33,164.178 238.663,163.011 239.5,162C 238.02,160.701 237.354,159.034 237.5,157C 237.715,150.609 239.215,150.109 242,155.5C 243.754,153.75 245.921,153.083 248.5,153.5C 252.173,143.909 256.673,134.909 262,126.5C 264.126,124.623 266.626,123.623 269.5,123.5C 269.502,120.174 268.502,117.174 266.5,114.5C 266.667,113.833 266.833,113.167 267,112.5C 267.667,113.833 268.333,113.833 269,112.5C 269.497,110.19 269.663,107.857 269.5,105.5C 264.38,104.755 259.047,104.422 253.5,104.5C 253.539,106.359 252.706,107.692 251,108.5C 248.859,107.925 246.359,107.592 243.5,107.5C 243.296,104.482 242.963,101.482 242.5,98.5C 238.062,97.4251 236.062,99.0917 236.5,103.5C 231.821,103.666 227.155,103.499 222.5,103C 221.167,101.333 221.167,99.6667 222.5,98C 225.289,97.7586 227.956,97.092 230.5,96C 225.279,94.7677 219.946,94.1011 214.5,94C 211.095,90.2182 207.095,88.3848 202.5,88.5C 199.838,86.4562 197.005,86.1229 194,87.5C 187.662,85.4886 181.162,84.9886 174.5,86C 171.095,87.4027 168.262,89.5694 166,92.5C 165.617,91.944 165.117,91.6107 164.5,91.5C 170.227,83.6446 177.893,80.8112 187.5,83C 192.144,84.029 196.81,84.8623 201.5,85.5C 203.265,86.4614 205.265,86.7947 207.5,86.5C 208.209,87.404 209.209,87.7373 210.5,87.5C 210.842,88.3382 211.508,88.6716 212.5,88.5C 213.167,88.5 213.833,88.5 214.5,88.5C 214.842,89.3382 215.508,89.6716 216.5,89.5C 218.167,89.5 219.833,89.5 221.5,89.5C 221.5,89.1667 221.5,88.8333 221.5,88.5C 229.595,87.8359 236.928,89.5026 243.5,93.5C 241.979,94.633 242.645,94.633 245.5,93.5C 248.097,93.2792 248.097,92.7792 245.5,92C 246,91.8333 246.5,91.6667 247,91.5C 252.157,92.6189 256.823,93.2856 261,93.5C 262.123,90.0437 261.29,87.2103 258.5,85C 243.226,85.446 228.226,83.1126 213.5,78C 212.743,76.4878 211.743,75.1545 210.5,74C 205.522,74.051 200.522,74.2177 195.5,74.5C 195.102,78.8249 197.102,81.3249 201.5,82C 200.756,83.0386 199.756,83.5386 198.5,83.5C 192.307,82.6949 186.14,81.6949 180,80.5C 176.284,81.0423 172.784,82.2089 169.5,84C 164.667,88.1667 159.833,92.3333 155,96.5C 148.146,105.568 141.313,114.568 134.5,123.5C 134.294,120.762 133.294,118.428 131.5,116.5C 130.56,118.572 129.06,120.239 127,121.5C 126.275,120.941 125.442,120.608 124.5,120.5C 122.58,121.669 120.58,122.669 118.5,123.5C 117.218,122.042 117.218,120.708 118.5,119.5C 118.833,122.167 119.167,122.167 119.5,119.5C 122.563,113.933 126.563,109.099 131.5,105C 134.5,104.667 137.5,104.333 140.5,104C 139.142,103.066 137.808,102.232 136.5,101.5C 138.512,100.986 140.512,100.82 142.5,101C 140.381,101.342 140.047,102.175 141.5,103.5C 141.833,104.833 142.167,104.833 142.5,103.5C 143.469,102.691 144.302,101.691 145,100.5C 147.129,101.863 147.629,101.529 146.5,99.5C 147.833,98.8333 149.167,98.1667 150.5,97.5C 149.289,96.2798 149.289,95.1131 150.5,94C 149.449,92.6152 148.116,91.6152 146.5,91C 139.197,89.3386 131.864,88.0053 124.5,87C 125.737,86.7679 126.737,86.2679 127.5,85.5C 137.838,86.2519 148.171,86.7519 158.5,87C 167.826,72.3405 181.16,66.3405 198.5,69C 225.189,73.9223 251.522,80.2557 277.5,88C 280.072,90.3128 281.739,93.1461 282.5,96.5 Z M 131.5,116.5 C 129.446,117.609 127.279,118.609 125,119.5C 124.5,119.333 124,119.167 123.5,119C 125.878,111.496 130.878,107.996 138.5,108.5C 136.144,111.186 133.811,113.853 131.5,116.5 Z M 221.5,89.5 C 224.781,89.4203 227.781,90.087 230.5,91.5C 227.219,91.5797 224.219,90.913 221.5,89.5 Z"/></g>
<g><path style="opacity:0.098" fill="#bab8c5" d="M 214.5,87.5 C 215.791,87.2627 216.791,87.596 217.5,88.5C 216.833,88.5 216.5,88.8333 216.5,89.5C 215.508,89.6716 214.842,89.3382 214.5,88.5C 214.5,88.1667 214.5,87.8333 214.5,87.5 Z"/></g>
<g><path style="opacity:0.999" fill="#06071c" d="M 245.5,93.5 C 244.833,93.5 244.167,93.5 243.5,93.5C 236.928,89.5026 229.595,87.8359 221.5,88.5C 220.167,88.5 218.833,88.5 217.5,88.5C 216.791,87.596 215.791,87.2627 214.5,87.5C 214.167,87.5 213.833,87.5 213.5,87.5C 212.791,86.596 211.791,86.2627 210.5,86.5C 209.5,86.5 208.5,86.5 207.5,86.5C 205.735,85.5386 203.735,85.2053 201.5,85.5C 200.5,84.8333 199.5,84.1667 198.5,83.5C 199.756,83.5386 200.756,83.0386 201.5,82C 197.102,81.3249 195.102,78.8249 195.5,74.5C 200.522,74.2177 205.522,74.051 210.5,74C 211.743,75.1545 212.743,76.4878 213.5,78C 228.226,83.1126 243.226,85.446 258.5,85C 261.29,87.2103 262.123,90.0437 261,93.5C 256.823,93.2856 252.157,92.6189 247,91.5C 246.5,91.6667 246,91.8333 245.5,92C 248.097,92.7792 248.097,93.2792 245.5,93.5 Z"/></g>
<g><path style="opacity:0.227" fill="#a8a8b5" d="M 210.5,86.5 C 211.791,86.2627 212.791,86.596 213.5,87.5C 212.833,87.5 212.5,87.8333 212.5,88.5C 211.508,88.6716 210.842,88.3382 210.5,87.5C 210.5,87.1667 210.5,86.8333 210.5,86.5 Z"/></g>
<g><path style="opacity:1" fill="#fb6c0a" d="M 314.5,226.5 C 315.264,236.683 315.93,247.016 316.5,257.5C 315.56,260.714 314.06,263.714 312,266.5C 311.974,270.179 311.14,273.512 309.5,276.5C 307.5,276.833 305.5,277.167 303.5,277.5C 303.151,282.567 302.318,287.567 301,292.5C 298.454,296.725 297.12,296.392 297,291.5C 296.417,295.832 295.917,300.165 295.5,304.5C 292.704,309.889 290.704,315.555 289.5,321.5C 288.167,321.5 286.833,321.5 285.5,321.5C 285.5,322.833 285.5,324.167 285.5,325.5C 282.297,327.025 279.63,329.358 277.5,332.5C 276.311,333.429 274.978,333.762 273.5,333.5C 273.67,334.822 273.337,335.989 272.5,337C 269.08,339.357 265.414,341.191 261.5,342.5C 261.392,340.486 262.058,338.82 263.5,337.5C 266.079,334.865 269.079,332.699 272.5,331C 270.365,330.365 268.365,330.699 266.5,332C 260.312,336.697 254.312,341.531 248.5,346.5C 249.609,347.29 250.942,347.79 252.5,348C 249.661,349.92 246.661,351.587 243.5,353C 242.748,353.671 242.414,354.504 242.5,355.5C 238.653,358.593 234.32,360.926 229.5,362.5C 226.856,362.84 224.523,362.173 222.5,360.5C 221.548,362.045 221.215,363.712 221.5,365.5C 214.443,366.945 207.276,367.945 200,368.5C 193.155,365.874 185.989,364.874 178.5,365.5C 179.507,361.994 181.007,358.661 183,355.5C 183.494,353.866 183.66,352.199 183.5,350.5C 185.326,345.516 187.659,340.849 190.5,336.5C 191.496,336.586 192.329,336.252 193,335.5C 194.752,332.328 196.752,329.328 199,326.5C 199.494,324.866 199.66,323.199 199.5,321.5C 200.5,321.5 201.5,321.5 202.5,321.5C 207.456,312.061 212.289,302.394 217,292.5C 222.975,285.385 227.809,277.552 231.5,269C 238.846,268.583 246.179,268.083 253.5,267.5C 256.572,267.187 259.405,267.854 262,269.5C 262.5,269.167 263,268.833 263.5,268.5C 260.94,266.326 261.106,264.326 264,262.5C 265.722,262.611 265.888,263.111 264.5,264C 267.17,264.793 269.67,265.96 272,267.5C 274.322,265.678 276.489,263.678 278.5,261.5C 281.855,254.378 284.689,247.045 287,239.5C 289.071,236.584 290.405,236.918 291,240.5C 291.667,239.167 292.333,239.167 293,240.5C 293.483,241.448 293.649,242.448 293.5,243.5C 295.833,243.5 298.167,243.5 300.5,243.5C 301.188,247.221 302.188,250.888 303.5,254.5C 303.392,255.442 303.059,256.275 302.5,257C 303.872,257.402 305.205,257.902 306.5,258.5C 308.621,256.979 310.121,254.979 311,252.5C 311.499,248.848 311.665,245.182 311.5,241.5C 311.529,237.36 312.196,233.36 313.5,229.5C 313.263,228.209 313.596,227.209 314.5,226.5 Z"/></g>
<g><path style="opacity:1" fill="#f5700c" d="M 23.5,169.5 C 23.5,170.5 23.5,171.5 23.5,172.5C 25.9477,172.085 27.2811,173.085 27.5,175.5C 25.5306,178.697 25.1972,182.03 26.5,185.5C 27.5217,181.928 29.0217,178.595 31,175.5C 32,178.833 33,182.167 34,185.5C 34.8333,184.5 35.6667,183.5 36.5,182.5C 37.3857,183.325 37.719,184.325 37.5,185.5C 36.1986,186.64 35.0319,187.973 34,189.5C 33.6667,188.833 33.3333,188.167 33,187.5C 30.5899,205.417 29.5899,223.417 30,241.5C 30.9772,242.774 31.8106,242.774 32.5,241.5C 32.8333,241.5 33.1667,241.5 33.5,241.5C 33.238,242.978 33.5713,244.311 34.5,245.5C 35.086,245.291 35.586,244.957 36,244.5C 36.3789,225.16 36.8789,205.827 37.5,186.5C 38.2216,186.918 38.7216,187.584 39,188.5C 39.1747,184.789 39.6747,181.122 40.5,177.5C 41.32,189.834 42.1534,202.168 43,214.5C 44.2904,216.657 45.1237,218.99 45.5,221.5C 43.6873,226.293 43.1873,231.293 44,236.5C 44.8333,235.5 45.6667,234.5 46.5,233.5C 47.4255,234.641 48.2588,234.641 49,233.5C 49.5855,235.129 50.4188,236.629 51.5,238C 52.4055,244.473 52.4055,250.973 51.5,257.5C 49.46,251.716 49.1266,245.716 50.5,239.5C 49.6378,237.233 47.9711,236.233 45.5,236.5C 45.5,243.167 45.5,249.833 45.5,256.5C 46.1667,256.833 46.8333,257.167 47.5,257.5C 47.5,258.167 47.8333,258.5 48.5,258.5C 49.209,259.404 50.209,259.737 51.5,259.5C 52.9778,259.762 54.3112,259.429 55.5,258.5C 53.9951,257.158 53.3285,255.492 53.5,253.5C 56.507,252.486 59.507,251.486 62.5,250.5C 62.3398,248.801 62.5065,247.134 63,245.5C 64.049,247.107 65.549,247.773 67.5,247.5C 65.1877,249.636 62.6877,251.636 60,253.5C 59.5172,254.448 59.3505,255.448 59.5,256.5C 54.4703,262.525 49.4703,268.525 44.5,274.5C 43.5041,274.414 42.6708,274.748 42,275.5C 39.0069,281.488 35.5069,287.154 31.5,292.5C 30.9258,295.177 30.2592,297.843 29.5,300.5C 28.0981,300.135 27.0981,299.301 26.5,298C 25.3371,290.659 23.6704,283.492 21.5,276.5C 23.0357,271.301 24.7024,265.968 26.5,260.5C 25.2846,251.56 24.618,242.56 24.5,233.5C 24.3327,221.834 24.9994,210.334 26.5,199C 26.6343,194.986 26.1343,191.153 25,187.5C 23.8855,189 23.0521,190.667 22.5,192.5C 21.675,193.386 20.675,193.719 19.5,193.5C 19.9746,190.918 19.3079,188.918 17.5,187.5C 17.8333,186.167 18.1667,184.833 18.5,183.5C 18.6159,180.14 18.9492,176.807 19.5,173.5C 20.6668,171.959 22.0001,170.625 23.5,169.5 Z M 35.5,208.5 C 34.8726,214.731 34.0393,221.065 33,227.5C 32.3554,216.771 32.8554,206.105 34.5,195.5C 35.4776,192.208 36.1443,192.041 36.5,195C 35.6551,199.461 35.3218,203.961 35.5,208.5 Z"/></g>
<g><path style="opacity:0.859" fill="#da7725" d="M 51.5,257.5 C 51.5,258.167 51.5,258.833 51.5,259.5C 50.209,259.737 49.209,259.404 48.5,258.5C 48.2112,251.822 47.7112,245.156 47,238.5C 46.4065,244.856 46.5731,251.189 47.5,257.5C 46.8333,257.167 46.1667,256.833 45.5,256.5C 45.5,249.833 45.5,243.167 45.5,236.5C 47.9711,236.233 49.6378,237.233 50.5,239.5C 49.1266,245.716 49.46,251.716 51.5,257.5 Z"/></g>
<g><path style="opacity:0.937" fill="#dc7226" d="M 37.5,185.5 C 37.5,185.833 37.5,186.167 37.5,186.5C 36.8789,205.827 36.3789,225.16 36,244.5C 35.586,244.957 35.086,245.291 34.5,245.5C 33.5713,244.311 33.238,242.978 33.5,241.5C 33.5,240.833 33.5,240.167 33.5,239.5C 33.5,237.5 33.5,235.5 33.5,233.5C 35.176,225.395 35.8427,217.062 35.5,208.5C 35.3218,203.961 35.6551,199.461 36.5,195C 36.1443,192.041 35.4776,192.208 34.5,195.5C 33.5713,198.675 32.738,202.009 32,205.5C 31.1737,217.674 31.3403,229.674 32.5,241.5C 31.8106,242.774 30.9772,242.774 30,241.5C 29.5899,223.417 30.5899,205.417 33,187.5C 33.3333,188.167 33.6667,188.833 34,189.5C 35.0319,187.973 36.1986,186.64 37.5,185.5 Z M 35.5,208.5 C 34.8726,214.731 34.0393,221.065 33,227.5C 32.3554,216.771 32.8554,206.105 34.5,195.5C 35.4776,192.208 36.1443,192.041 36.5,195C 35.6551,199.461 35.3218,203.961 35.5,208.5 Z"/></g>
<g><path style="opacity:0.11" fill="#d39d70" d="M 34.5,195.5 C 32.8554,206.105 32.3554,216.771 33,227.5C 34.0393,221.065 34.8726,214.731 35.5,208.5C 35.8427,217.062 35.176,225.395 33.5,233.5C 32.1655,231.435 32.1655,233.435 33.5,239.5C 33.5,240.167 33.5,240.833 33.5,241.5C 33.1667,241.5 32.8333,241.5 32.5,241.5C 31.3403,229.674 31.1737,217.674 32,205.5C 32.738,202.009 33.5713,198.675 34.5,195.5 Z"/></g>
<g><path style="opacity:0.103" fill="#ffd982" d="M 48.5,258.5 C 47.8333,258.5 47.5,258.167 47.5,257.5C 46.5731,251.189 46.4065,244.856 47,238.5C 47.7112,245.156 48.2112,251.822 48.5,258.5 Z"/></g>
<g><path style="opacity:1" fill="#fd6c08" d="M 45.5,256.5 C 44.617,261.636 44.617,266.636 45.5,271.5C 42.7053,272.461 40.7053,274.294 39.5,277C 37.8008,277.393 36.3008,276.893 35,275.5C 32.7903,277.111 30.2903,277.778 27.5,277.5C 27.2505,274.998 26.9172,272.498 26.5,270C 26.2582,267.652 27.0916,265.818 29,264.5C 29.6626,261.131 29.4959,257.797 28.5,254.5C 29.2373,251.644 30.4039,248.978 32,246.5C 35.437,249.73 38.437,252.73 41,255.5C 43.0934,252.862 44.5934,253.196 45.5,256.5 Z"/></g>
<g><path style="opacity:0.71" fill="#e9aa5a" d="M 276.5,241.5 C 276.824,245.537 275.158,248.203 271.5,249.5C 272.383,246.296 274.05,243.629 276.5,241.5 Z"/></g>
<g><path style="opacity:1" fill="#090e1f" d="M 100.5,218.5 C 100.351,219.552 100.517,220.552 101,221.5C 102.609,222.147 104.109,222.98 105.5,224C 102.47,226.796 99.9701,229.963 98,233.5C 95.1188,234.212 92.9522,235.878 91.5,238.5C 89.913,240.446 90.2464,241.946 92.5,243C 89.3991,243.942 87.0658,245.776 85.5,248.5C 84.549,247.674 83.549,247.508 82.5,248C 84.5407,249.242 85.7073,251.075 86,253.5C 88.0923,252.36 90.259,252.36 92.5,253.5C 93.8333,259.833 93.8333,266.167 92.5,272.5C 87.9226,272.635 83.4226,272.968 79,273.5C 78.964,271.059 78.1307,269.059 76.5,267.5C 73.0179,268.035 71.3512,270.035 71.5,273.5C 69.396,273.799 67.396,273.466 65.5,272.5C 66.2357,270.459 67.0691,268.459 68,266.5C 72.0882,263.924 74.2549,260.257 74.5,255.5C 73.0695,255.421 71.7362,255.754 70.5,256.5C 68.9427,260.225 66.276,262.725 62.5,264C 61.8448,265.487 60.8448,266.653 59.5,267.5C 57.9662,274.911 56.2995,282.244 54.5,289.5C 56.1667,289.5 57.8333,289.5 59.5,289.5C 59.6641,292.187 59.4974,294.854 59,297.5C 56.6305,300.541 56.4638,303.541 58.5,306.5C 55.5432,311.513 56.2099,316.013 60.5,320C 59.6266,321.045 58.6266,321.878 57.5,322.5C 57.7692,320.571 57.2692,318.905 56,317.5C 54.9513,319.384 53.4513,320.718 51.5,321.5C 51.1667,321.5 50.8333,321.5 50.5,321.5C 48.2554,317.877 46.9221,313.877 46.5,309.5C 47.3557,297.677 49.189,286.01 52,274.5C 59.7222,263.772 68.5555,253.939 78.5,245C 85.1201,240.77 91.2868,235.937 97,230.5C 97.8806,226.291 99.0473,222.291 100.5,218.5 Z"/></g>
<g><path style="opacity:1" fill="#12151f" d="M 274.5,237.5 C 267.188,254.819 254.522,261.486 236.5,257.5C 240.823,258.829 245.156,258.829 249.5,257.5C 251.974,257.387 253.974,256.387 255.5,254.5C 255.968,252.866 256.968,251.7 258.5,251C 257.174,248.842 255.507,247.008 253.5,245.5C 252.754,244.264 252.421,242.93 252.5,241.5C 253.833,241.5 255.167,241.5 256.5,241.5C 256.33,242.822 256.663,243.989 257.5,245C 260.347,245.944 262.847,245.444 265,243.5C 266.268,243.616 267.602,243.949 269,244.5C 269.333,242.5 269.667,240.5 270,238.5C 271.356,237.62 272.856,237.286 274.5,237.5 Z"/></g>
<g><path style="opacity:0.157" fill="#cf7e38" d="M 78.5,237.5 C 72.8247,244.543 66.4914,250.876 59.5,256.5C 59.3505,255.448 59.5172,254.448 60,253.5C 62.6877,251.636 65.1877,249.636 67.5,247.5C 69.3998,245.381 71.0664,243.047 72.5,240.5C 74.0122,238.683 76.0122,237.683 78.5,237.5 Z"/></g>
<g><path style="opacity:0.012" fill="#fee49a" d="M 322.5,242.5 C 322.232,244.099 322.566,245.432 323.5,246.5C 323.233,248.965 322.566,251.299 321.5,253.5C 321.167,253.5 320.833,253.5 320.5,253.5C 320.5,252.167 320.5,250.833 320.5,249.5C 321.167,247.167 321.833,244.833 322.5,242.5 Z"/></g>
<g><path style="opacity:0.902" fill="#e87f37" d="M 13.5,225.5 C 14.5893,237.339 14.5893,249.339 13.5,261.5C 13.1667,261.5 12.8333,261.5 12.5,261.5C 10.364,257.724 10.0307,253.724 11.5,249.5C 13.1554,241.729 13.8221,233.729 13.5,225.5 Z"/></g>
<g><path style="opacity:0.657" fill="#c87229" d="M 324.5,238.5 C 325.909,246.126 325.409,253.793 323,261.5C 321.869,260.396 321.035,260.729 320.5,262.5C 321.681,264.198 321.681,265.865 320.5,267.5C 319.571,266.311 319.238,264.978 319.5,263.5C 319.851,260.097 320.518,256.763 321.5,253.5C 322.566,251.299 323.233,248.965 323.5,246.5C 324.092,243.873 324.425,241.206 324.5,238.5 Z"/></g>
<g><path style="opacity:0.243" fill="#d89c56" d="M 271.5,249.5 C 268.827,254.687 265.16,259.187 260.5,263C 258.559,264.903 256.226,265.736 253.5,265.5C 260.394,261.278 266.394,255.945 271.5,249.5 Z"/></g>
<g><path style="opacity:0.71" fill="#d87d36" d="M 320.5,249.5 C 320.5,250.833 320.5,252.167 320.5,253.5C 316.829,265.831 311.829,277.498 305.5,288.5C 304.742,283.729 306.075,279.729 309.5,276.5C 311.14,273.512 311.974,270.179 312,266.5C 314.06,263.714 315.56,260.714 316.5,257.5C 318.422,255.207 319.755,252.541 320.5,249.5 Z"/></g>
<g><path style="opacity:1" fill="#060d20" d="M 165.5,300.5 C 168.57,294.696 171.903,289.03 175.5,283.5C 175.5,283.167 175.5,282.833 175.5,282.5C 176.167,282.5 176.5,282.167 176.5,281.5C 178.012,277.799 180.012,274.466 182.5,271.5C 183.117,271.611 183.617,271.944 184,272.5C 184.862,270.913 185.529,269.246 186,267.5C 187.049,268.517 188.216,268.684 189.5,268C 191.18,263.437 194.347,261.937 199,263.5C 198.328,268.844 195.995,273.51 192,277.5C 190.956,279.715 190.29,282.048 190,284.5C 188.434,283.939 187.101,284.606 186,286.5C 185.333,288.5 184.667,290.5 184,292.5C 183.577,291.044 182.744,290.544 181.5,291C 182.285,293.042 181.952,295.042 180.5,297C 178.887,297.089 177.72,296.255 177,294.5C 176.156,298.013 174.156,300.68 171,302.5C 171.49,307.287 169.823,310.954 166,313.5C 164.256,312.351 164.089,311.017 165.5,309.5C 165.154,308.304 164.654,308.304 164,309.5C 163.833,308.833 163.667,308.167 163.5,307.5C 164.937,305.423 165.604,303.09 165.5,300.5 Z"/></g>
<g><path style="opacity:0.8" fill="#d29c55" d="M 324.5,230.5 C 325.492,230.328 326.158,230.662 326.5,231.5C 327.2,235.798 327.533,240.131 327.5,244.5C 327.149,254.913 324.483,264.58 319.5,273.5C 317.436,277.498 316.103,281.831 315.5,286.5C 314.817,286.137 314.15,285.804 313.5,285.5C 312.402,284.399 312.235,283.066 313,281.5C 315.299,275.429 317.465,269.429 319.5,263.5C 319.238,264.978 319.571,266.311 320.5,267.5C 321.681,265.865 321.681,264.198 320.5,262.5C 321.035,260.729 321.869,260.396 323,261.5C 325.409,253.793 325.909,246.126 324.5,238.5C 324.5,235.833 324.5,233.167 324.5,230.5 Z"/></g>
<g><path style="opacity:0.569" fill="#d98d4a" d="M 12.5,261.5 C 12.8333,261.5 13.1667,261.5 13.5,261.5C 15.0499,264.242 16.8832,266.909 19,269.5C 19.1558,272.191 19.9891,274.524 21.5,276.5C 23.6704,283.492 25.3371,290.659 26.5,298C 27.0981,299.301 28.0981,300.135 29.5,300.5C 30.2592,297.843 30.9258,295.177 31.5,292.5C 35.5069,287.154 39.0069,281.488 42,275.5C 42.6708,274.748 43.5041,274.414 44.5,274.5C 41.7092,282.082 37.8759,289.082 33,295.5C 31.9207,298.063 31.4207,300.729 31.5,303.5C 29.0968,303.607 27.2635,302.607 26,300.5C 24.2063,294.947 22.8729,289.281 22,283.5C 18.5326,276.254 15.3659,268.921 12.5,261.5 Z"/></g>
<g><path style="opacity:0.012" fill="#ecedee" d="M 175.5,280.5 C 175.5,281.167 175.833,281.5 176.5,281.5C 176.5,282.167 176.167,282.5 175.5,282.5C 175.167,282.5 174.833,282.5 174.5,282.5C 174.328,281.508 174.662,280.842 175.5,280.5 Z"/></g>
<g><path style="opacity:1" fill="#df7a14" d="M 283.5,277.5 C 284.693,277.97 285.36,278.97 285.5,280.5C 283.65,283.204 282.65,286.204 282.5,289.5C 280.533,289.739 278.699,289.406 277,288.5C 276.674,285.668 277.174,283.001 278.5,280.5C 281.285,281.084 282.952,280.084 283.5,277.5 Z"/></g>
<g><path style="opacity:0.063" fill="#e1e4e5" d="M 173.5,283.5 C 174.167,283.5 174.833,283.5 175.5,283.5C 171.903,289.03 168.57,294.696 165.5,300.5C 162.082,306.337 158.416,312.004 154.5,317.5C 153.833,317.5 153.5,317.833 153.5,318.5C 152.833,318.5 152.167,318.5 151.5,318.5C 151.932,317.29 152.599,316.29 153.5,315.5C 154.167,315.5 154.5,315.167 154.5,314.5C 155.11,312.566 156.11,310.899 157.5,309.5C 158.167,309.5 158.5,309.167 158.5,308.5C 162.749,299.661 167.749,291.328 173.5,283.5 Z"/></g>
<g><path style="opacity:0.31" fill="#ebd3a0" d="M 319.5,273.5 C 318.833,278.5 318.167,283.5 317.5,288.5C 315.027,288.912 313.694,287.912 313.5,285.5C 314.15,285.804 314.817,286.137 315.5,286.5C 316.103,281.831 317.436,277.498 319.5,273.5 Z"/></g>
<g><path style="opacity:1" fill="#ea7d22" d="M 309.5,276.5 C 306.075,279.729 304.742,283.729 305.5,288.5C 304.069,291.701 302.403,294.701 300.5,297.5C 299.5,297.5 298.5,297.5 297.5,297.5C 297.59,300.152 296.924,302.485 295.5,304.5C 295.917,300.165 296.417,295.832 297,291.5C 297.12,296.392 298.454,296.725 301,292.5C 302.318,287.567 303.151,282.567 303.5,277.5C 305.5,277.167 307.5,276.833 309.5,276.5 Z"/></g>
<g><path style="opacity:0.997" fill="#0d131e" d="M 282.5,96.5 C 287.464,105.141 288.297,114.141 285,123.5C 280.776,136.617 275.442,149.284 269,161.5C 266.372,163.126 264.039,165.126 262,167.5C 242.933,196.297 225.933,226.297 211,257.5C 192.251,288.667 173.251,319.667 154,350.5C 152.048,352.894 149.548,354.394 146.5,355C 153.451,354.601 158.951,351.434 163,345.5C 182.066,315.34 200.566,285.007 218.5,254.5C 220.316,255.815 221.983,257.315 223.5,259C 226.032,259.619 228.365,260.619 230.5,262C 228.391,263.141 226.558,264.641 225,266.5C 208.837,294.831 192.17,322.831 175,350.5C 169.149,357.857 161.649,362.524 152.5,364.5C 150.031,363.683 147.365,363.183 144.5,363C 147.329,362.952 149.663,361.952 151.5,360C 149.953,359.667 148.62,360.167 147.5,361.5C 146.476,360.147 145.143,359.48 143.5,359.5C 146.575,355.299 145.909,351.799 141.5,349C 142,348.5 142.5,348 143,347.5C 144.833,349.167 146.667,350.833 148.5,352.5C 153.839,347.971 153.505,343.804 147.5,340C 148.833,339.333 148.833,338.667 147.5,338C 148.473,335.453 150.307,333.953 153,333.5C 155.045,328.384 153.212,326.551 147.5,328C 144.476,333.068 140.143,336.235 134.5,337.5C 136.475,335.863 138.475,334.196 140.5,332.5C 145.194,328.473 149.527,324.14 153.5,319.5C 153.5,319.167 153.5,318.833 153.5,318.5C 154.167,318.5 154.5,318.167 154.5,317.5C 158.416,312.004 162.082,306.337 165.5,300.5C 165.604,303.09 164.937,305.423 163.5,307.5C 163.667,308.167 163.833,308.833 164,309.5C 164.654,308.304 165.154,308.304 165.5,309.5C 164.089,311.017 164.256,312.351 166,313.5C 169.823,310.954 171.49,307.287 171,302.5C 174.156,300.68 176.156,298.013 177,294.5C 177.72,296.255 178.887,297.089 180.5,297C 181.952,295.042 182.285,293.042 181.5,291C 182.744,290.544 183.577,291.044 184,292.5C 184.667,290.5 185.333,288.5 186,286.5C 187.101,284.606 188.434,283.939 190,284.5C 190.29,282.048 190.956,279.715 192,277.5C 195.995,273.51 198.328,268.844 199,263.5C 194.347,261.937 191.18,263.437 189.5,268C 188.216,268.684 187.049,268.517 186,267.5C 185.529,269.246 184.862,270.913 184,272.5C 183.617,271.944 183.117,271.611 182.5,271.5C 195.764,249.303 208.764,226.97 221.5,204.5C 222.906,204.027 223.573,203.027 223.5,201.5C 239.863,177.947 255.697,153.947 271,129.5C 276.446,121.806 277.279,113.806 273.5,105.5C 274.117,105.389 274.617,105.056 275,104.5C 275.29,106.044 275.956,107.377 277,108.5C 276.805,106.874 276.805,105.207 277,103.5C 278.016,104.634 278.683,104.301 279,102.5C 280.43,102.694 281.93,102.694 283.5,102.5C 282.652,100.591 282.318,98.5914 282.5,96.5 Z"/></g>
<g><path style="opacity:0.675" fill="#db934b" d="M 253.5,265.5 C 253.5,266.167 253.5,266.833 253.5,267.5C 246.179,268.083 238.846,268.583 231.5,269C 227.809,277.552 222.975,285.385 217,292.5C 212.289,302.394 207.456,312.061 202.5,321.5C 201.5,321.5 200.5,321.5 199.5,321.5C 209.056,304.059 218.89,286.726 229,269.5C 230.389,267.773 232.056,266.439 234,265.5C 240.484,267.962 246.984,267.962 253.5,265.5 Z"/></g>
<g><path style="opacity:0.58" fill="#dc8d47" d="M 300.5,297.5 C 297.891,306.047 294.225,314.047 289.5,321.5C 290.704,315.555 292.704,309.889 295.5,304.5C 296.924,302.485 297.59,300.152 297.5,297.5C 298.5,297.5 299.5,297.5 300.5,297.5 Z"/></g>
<g><path style="opacity:0.008" fill="#d6d6d6" d="M 150.5,319.5 C 151.5,319.5 152.5,319.5 153.5,319.5C 149.527,324.14 145.194,328.473 140.5,332.5C 140.5,331.833 140.5,331.167 140.5,330.5C 140.5,329.833 140.833,329.5 141.5,329.5C 141.833,328.5 142.5,327.833 143.5,327.5C 144.167,327.5 144.5,327.167 144.5,326.5C 146.529,324.142 148.529,321.808 150.5,319.5 Z"/></g>
<g><path style="opacity:0.973" fill="#da8e40" d="M 199.5,321.5 C 199.66,323.199 199.494,324.866 199,326.5C 196.752,329.328 194.752,332.328 193,335.5C 192.329,336.252 191.496,336.586 190.5,336.5C 193.11,331.233 196.11,326.233 199.5,321.5 Z"/></g>
<g><path style="opacity:1" fill="#dcdce3" d="M 48.5,321.5 C 49.1667,321.5 49.8333,321.5 50.5,321.5C 50.8333,321.5 51.1667,321.5 51.5,321.5C 53.7126,323.86 56.3793,325.694 59.5,327C 67.0374,328.879 74.3708,331.046 81.5,333.5C 80.8333,333.5 80.5,333.833 80.5,334.5C 70.0077,332.558 60.0077,329.225 50.5,324.5C 49.5748,323.643 48.9081,322.643 48.5,321.5 Z"/></g>
<g><path style="opacity:1" fill="#fce373" d="M 263.5,337.5 C 258.762,340.898 253.762,343.898 248.5,346.5C 254.312,341.531 260.312,336.697 266.5,332C 268.365,330.699 270.365,330.365 272.5,331C 269.079,332.699 266.079,334.865 263.5,337.5 Z"/></g>
<g><path style="opacity:1" fill="#0d1019" d="M 48.5,321.5 C 48.9081,322.643 49.5748,323.643 50.5,324.5C 60.0077,329.225 70.0077,332.558 80.5,334.5C 81.1667,334.5 81.8333,334.5 82.5,334.5C 95.0905,338.911 108.091,341.911 121.5,343.5C 123.833,342.833 126.167,342.167 128.5,341.5C 127.327,343.504 125.66,345.004 123.5,346C 118.816,346.435 114.149,346.935 109.5,347.5C 109.5,349.167 109.5,350.833 109.5,352.5C 107.486,352.392 105.82,353.058 104.5,354.5C 85.5564,347.242 66.223,341.075 46.5,336C 37.55,332.625 32.55,326.125 31.5,316.5C 33.251,306.246 36.5843,296.579 41.5,287.5C 42.3333,288.5 43.1667,289.5 44,290.5C 44.3333,298.167 44.6667,305.833 45,313.5C 45.3874,316.599 46.5541,319.266 48.5,321.5 Z"/></g>
<g><path style="opacity:0.667" fill="#dfdfe3" d="M 83.5,333.5 C 93.7504,336.418 104.084,339.084 114.5,341.5C 115.167,342.833 115.833,342.833 116.5,341.5C 117.833,341.5 119.167,341.5 120.5,341.5C 120.833,342.167 121.167,342.833 121.5,343.5C 108.091,341.911 95.0905,338.911 82.5,334.5C 83.1667,334.5 83.5,334.167 83.5,333.5 Z"/></g>
<g><path style="opacity:1" fill="#080e1e" d="M 152.5,364.5 C 135.163,367.162 119.163,363.829 104.5,354.5C 105.82,353.058 107.486,352.392 109.5,352.5C 109.5,350.833 109.5,349.167 109.5,347.5C 114.149,346.935 118.816,346.435 123.5,346C 125.66,345.004 127.327,343.504 128.5,341.5C 130.5,340.167 132.5,338.833 134.5,337.5C 140.143,336.235 144.476,333.068 147.5,328C 153.212,326.551 155.045,328.384 153,333.5C 150.307,333.953 148.473,335.453 147.5,338C 148.833,338.667 148.833,339.333 147.5,340C 153.505,343.804 153.839,347.971 148.5,352.5C 146.667,350.833 144.833,349.167 143,347.5C 142.5,348 142,348.5 141.5,349C 145.909,351.799 146.575,355.299 143.5,359.5C 145.143,359.48 146.476,360.147 147.5,361.5C 148.62,360.167 149.953,359.667 151.5,360C 149.663,361.952 147.329,362.952 144.5,363C 147.365,363.183 150.031,363.683 152.5,364.5 Z"/></g>
<g><path style="opacity:1" fill="#d97b29" d="M 289.5,321.5 C 284.685,327.815 279.352,333.648 273.5,339C 263.258,344.759 252.925,350.259 242.5,355.5C 242.414,354.504 242.748,353.671 243.5,353C 246.661,351.587 249.661,349.92 252.5,348C 250.942,347.79 249.609,347.29 248.5,346.5C 253.762,343.898 258.762,340.898 263.5,337.5C 262.058,338.82 261.392,340.486 261.5,342.5C 265.414,341.191 269.08,339.357 272.5,337C 273.337,335.989 273.67,334.822 273.5,333.5C 274.978,333.762 276.311,333.429 277.5,332.5C 279.63,329.358 282.297,327.025 285.5,325.5C 285.5,324.167 285.5,322.833 285.5,321.5C 286.833,321.5 288.167,321.5 289.5,321.5 Z"/></g>
<g><path style="opacity:1" fill="#171b24" d="M 71.5,349.5 C 73.1992,349.34 74.8659,349.506 76.5,350C 88.801,356.377 101.468,361.877 114.5,366.5C 114.291,367.086 113.957,367.586 113.5,368C 99.548,369.016 87.2147,365.016 76.5,356C 74.2101,354.223 72.5434,352.056 71.5,349.5 Z"/></g>
<g><path style="opacity:1" fill="#dd832c" d="M 183.5,350.5 C 183.66,352.199 183.494,353.866 183,355.5C 181.007,358.661 179.507,361.994 178.5,365.5C 185.989,364.874 193.155,365.874 200,368.5C 207.276,367.945 214.443,366.945 221.5,365.5C 221.215,363.712 221.548,362.045 222.5,360.5C 224.523,362.173 226.856,362.84 229.5,362.5C 215.881,369.827 201.547,371.661 186.5,368C 182.833,367.667 179.167,367.333 175.5,367C 175.167,366.667 174.833,366.333 174.5,366C 177.653,360.852 180.653,355.686 183.5,350.5 Z"/></g>
</svg>
